<svg width="95" height="95" viewBox="0 0 95 95" fill="none" xmlns="http://www.w3.org/2000/svg">
<circle cx="47.5" cy="47.5" r="47.5" fill="#F03F29" fill-opacity="0.25"/>
<circle cx="47.5" cy="47.5" r="39.5" fill="#F03F29" fill-opacity="0.5"/>
<circle cx="47.5" cy="47.5" r="26.5" fill="#F03F29"/>
<g clip-path="url(#clip0_28_639)">
<path d="M59.9997 46H48.9997V35C48.9997 34.7348 48.8943 34.4804 48.7068 34.2929C48.5192 34.1054 48.2649 34 47.9997 34C47.7345 34 47.4801 34.1054 47.2926 34.2929C47.105 34.4804 46.9997 34.7348 46.9997 35V46H35.9997C35.7345 46 35.4801 46.1054 35.2926 46.2929C35.105 46.4804 34.9997 46.7348 34.9997 47C34.9947 47.13 35.0177 47.2595 35.0671 47.3798C35.1164 47.5001 35.191 47.6085 35.2858 47.6976C35.3805 47.7867 35.4933 47.8544 35.6164 47.8962C35.7396 47.938 35.8703 47.953 35.9997 47.94H46.9997V59C46.9997 59.2652 47.105 59.5196 47.2926 59.7071C47.4801 59.8946 47.7345 60 47.9997 60C48.2649 60 48.5192 59.8946 48.7068 59.7071C48.8943 59.5196 48.9997 59.2652 48.9997 59V48H59.9997C60.2649 48 60.5193 47.8946 60.7068 47.7071C60.8943 47.5196 60.9997 47.2652 60.9997 47C60.9997 46.7348 60.8943 46.4804 60.7068 46.2929C60.5193 46.1054 60.2649 46 59.9997 46Z" fill="white"/>
</g>
<defs>
<clipPath id="clip0_28_639">
<rect width="36" height="36" fill="white" transform="translate(30 29)"/>
</clipPath>
</defs>
</svg>
