<svg width="121" height="40" viewBox="0 0 121 40" fill="none" xmlns="http://www.w3.org/2000/svg">
<rect width="121" height="40" rx="20" fill="#F03F29"/>
<path d="M29.226 23.698C28.246 24.678 27.0467 25.168 25.628 25.168C24.2093 25.168 23.01 24.678 22.03 23.698C21.05 22.7087 20.56 21.5093 20.56 20.1C20.56 18.6907 21.05 17.496 22.03 16.516C23.01 15.5267 24.2093 15.032 25.628 15.032C27.0467 15.032 28.246 15.5267 29.226 16.516C30.206 17.496 30.696 18.6907 30.696 20.1C30.696 21.5093 30.206 22.7087 29.226 23.698ZM22.716 23.026C23.5 23.8193 24.4707 24.216 25.628 24.216C26.7853 24.216 27.756 23.8193 28.54 23.026C29.324 22.2233 29.716 21.248 29.716 20.1C29.716 18.952 29.324 17.9813 28.54 17.188C27.756 16.3853 26.7853 15.984 25.628 15.984C24.4707 15.984 23.5 16.3853 22.716 17.188C21.932 17.9813 21.54 18.952 21.54 20.1C21.54 21.248 21.932 22.2233 22.716 23.026ZM37.272 18V18.896H34.794V25H33.87V18.896H31.392V18H37.272ZM43.718 15.2H44.558V25H43.578V16.278L41.38 16.936L41.128 16.096L43.718 15.2ZM52.8158 23.796C52.1718 24.7107 51.2618 25.168 50.0858 25.168C48.9098 25.168 47.9951 24.7107 47.3418 23.796C46.6978 22.872 46.3758 21.64 46.3758 20.1C46.3758 18.56 46.6978 17.3327 47.3418 16.418C47.9951 15.494 48.9098 15.032 50.0858 15.032C51.2618 15.032 52.1718 15.494 52.8158 16.418C53.4691 17.3327 53.7958 18.56 53.7958 20.1C53.7958 21.64 53.4691 22.872 52.8158 23.796ZM48.0698 23.138C48.5551 23.8567 49.2271 24.216 50.0858 24.216C50.9444 24.216 51.6118 23.8567 52.0878 23.138C52.5731 22.4193 52.8158 21.4067 52.8158 20.1C52.8158 18.7933 52.5731 17.7807 52.0878 17.062C51.6118 16.3433 50.9444 15.984 50.0858 15.984C49.2271 15.984 48.5551 16.3433 48.0698 17.062C47.5938 17.7807 47.3558 18.7933 47.3558 20.1C47.3558 21.4067 47.5938 22.4193 48.0698 23.138ZM54.5007 15.2H60.5207V16.124L56.8247 25H55.8027L59.4987 16.124H54.5007V15.2ZM71.584 18.266C71.584 19.0033 71.3833 19.6567 70.982 20.226L67.776 25H66.67L69.078 21.416C68.826 21.472 68.5647 21.5 68.294 21.5C67.3327 21.5 66.544 21.2013 65.928 20.604C65.312 19.9973 65.004 19.218 65.004 18.266C65.004 17.314 65.312 16.5393 65.928 15.942C66.544 15.3353 67.3327 15.032 68.294 15.032C69.2553 15.032 70.044 15.3353 70.66 15.942C71.276 16.5393 71.584 17.314 71.584 18.266ZM66.614 16.614C66.194 17.034 65.984 17.5847 65.984 18.266C65.984 18.9473 66.194 19.498 66.614 19.918C67.0433 20.338 67.6033 20.548 68.294 20.548C68.9847 20.548 69.54 20.338 69.96 19.918C70.3893 19.498 70.604 18.9473 70.604 18.266C70.604 17.5847 70.3893 17.034 69.96 16.614C69.54 16.194 68.9847 15.984 68.294 15.984C67.6033 15.984 67.0433 16.194 66.614 16.614ZM79.0078 18.266C79.0078 19.0033 78.8071 19.6567 78.4058 20.226L75.1998 25H74.0938L76.5018 21.416C76.2498 21.472 75.9885 21.5 75.7178 21.5C74.7565 21.5 73.9678 21.2013 73.3518 20.604C72.7358 19.9973 72.4278 19.218 72.4278 18.266C72.4278 17.314 72.7358 16.5393 73.3518 15.942C73.9678 15.3353 74.7565 15.032 75.7178 15.032C76.6791 15.032 77.4678 15.3353 78.0838 15.942C78.6998 16.5393 79.0078 17.314 79.0078 18.266ZM74.0378 16.614C73.6178 17.034 73.4078 17.5847 73.4078 18.266C73.4078 18.9473 73.6178 19.498 74.0378 19.918C74.4671 20.338 75.0271 20.548 75.7178 20.548C76.4085 20.548 76.9638 20.338 77.3838 19.918C77.8131 19.498 78.0278 18.9473 78.0278 18.266C78.0278 17.5847 77.8131 17.034 77.3838 16.614C76.9638 16.194 76.4085 15.984 75.7178 15.984C75.0271 15.984 74.4671 16.194 74.0378 16.614ZM86.5716 23.796C85.9276 24.7107 85.0176 25.168 83.8416 25.168C82.6656 25.168 81.751 24.7107 81.0976 23.796C80.4536 22.872 80.1316 21.64 80.1316 20.1C80.1316 18.56 80.4536 17.3327 81.0976 16.418C81.751 15.494 82.6656 15.032 83.8416 15.032C85.0176 15.032 85.9276 15.494 86.5716 16.418C87.225 17.3327 87.5516 18.56 87.5516 20.1C87.5516 21.64 87.225 22.872 86.5716 23.796ZM81.8256 23.138C82.311 23.8567 82.983 24.216 83.8416 24.216C84.7003 24.216 85.3676 23.8567 85.8436 23.138C86.329 22.4193 86.5716 21.4067 86.5716 20.1C86.5716 18.7933 86.329 17.7807 85.8436 17.062C85.3676 16.3433 84.7003 15.984 83.8416 15.984C82.983 15.984 82.311 16.3433 81.8256 17.062C81.3496 17.7807 81.1116 18.7933 81.1116 20.1C81.1116 21.4067 81.3496 22.4193 81.8256 23.138ZM96.79 21.08H94.27V22.396H97.91V23.208H94.27V25H93.29V23.208H92.03V22.396H93.29V21.08H92.03V20.156H93.29V15.2H96.79C97.602 15.2 98.2927 15.4893 98.862 16.068C99.4407 16.6373 99.73 17.328 99.73 18.14C99.73 18.9427 99.4407 19.6333 98.862 20.212C98.2927 20.7907 97.602 21.08 96.79 21.08ZM94.27 16.124V20.156H96.79C97.3313 20.156 97.7933 19.96 98.176 19.568C98.5587 19.1667 98.75 18.6907 98.75 18.14C98.75 17.58 98.5587 17.104 98.176 16.712C97.7933 16.32 97.3313 16.124 96.79 16.124H94.27Z" fill="white"/>
</svg>
