<svg width="121" height="40" viewBox="0 0 121 40" fill="none" xmlns="http://www.w3.org/2000/svg">
<rect width="121" height="40" rx="20" fill="#F03F29"/>
<path d="M29.226 23.698C28.246 24.678 27.0467 25.168 25.628 25.168C24.2093 25.168 23.01 24.678 22.03 23.698C21.05 22.7087 20.56 21.5093 20.56 20.1C20.56 18.6907 21.05 17.496 22.03 16.516C23.01 15.5267 24.2093 15.032 25.628 15.032C27.0467 15.032 28.246 15.5267 29.226 16.516C30.206 17.496 30.696 18.6907 30.696 20.1C30.696 21.5093 30.206 22.7087 29.226 23.698ZM22.716 23.026C23.5 23.8193 24.4707 24.216 25.628 24.216C26.7853 24.216 27.756 23.8193 28.54 23.026C29.324 22.2233 29.716 21.248 29.716 20.1C29.716 18.952 29.324 17.9813 28.54 17.188C27.756 16.3853 26.7853 15.984 25.628 15.984C24.4707 15.984 23.5 16.3853 22.716 17.188C21.932 17.9813 21.54 18.952 21.54 20.1C21.54 21.248 21.932 22.2233 22.716 23.026ZM37.272 18V18.896H34.794V25H33.87V18.896H31.392V18H37.272ZM43.718 15.2H44.558V25H43.578V16.278L41.38 16.936L41.128 16.096L43.718 15.2ZM49.8338 19.274C50.6178 19.3767 51.2618 19.68 51.7658 20.184C52.2791 20.6787 52.5358 21.3367 52.5358 22.158C52.5358 23.0913 52.2138 23.8287 51.5698 24.37C50.9351 24.902 50.1604 25.168 49.2458 25.168C48.5178 25.168 47.8691 25 47.2998 24.664C46.7304 24.328 46.3291 23.8473 46.0958 23.222L46.9078 22.746C47.0664 23.2313 47.3511 23.6 47.7618 23.852C48.1724 24.0947 48.6671 24.216 49.2458 24.216C49.9178 24.216 50.4684 24.0387 50.8978 23.684C51.3364 23.32 51.5558 22.8113 51.5558 22.158C51.5558 21.5047 51.3364 21.0007 50.8978 20.646C50.4684 20.282 49.9178 20.1 49.2458 20.1V20.086L49.2318 20.1H48.9658L48.5458 19.456L50.9818 16.124H46.3758V15.2H52.1158V16.124L49.8338 19.274ZM53.3796 15.2H59.3996V16.124L55.7036 25H54.6816L58.3776 16.124H53.3796V15.2ZM70.4629 18.266C70.4629 19.0033 70.2622 19.6567 69.8609 20.226L66.6549 25H65.5489L67.9569 21.416C67.7049 21.472 67.4436 21.5 67.1729 21.5C66.2116 21.5 65.4229 21.2013 64.8069 20.604C64.1909 19.9973 63.8829 19.218 63.8829 18.266C63.8829 17.314 64.1909 16.5393 64.8069 15.942C65.4229 15.3353 66.2116 15.032 67.1729 15.032C68.1342 15.032 68.9229 15.3353 69.5389 15.942C70.1549 16.5393 70.4629 17.314 70.4629 18.266ZM65.4929 16.614C65.0729 17.034 64.8629 17.5847 64.8629 18.266C64.8629 18.9473 65.0729 19.498 65.4929 19.918C65.9222 20.338 66.4822 20.548 67.1729 20.548C67.8636 20.548 68.4189 20.338 68.8389 19.918C69.2682 19.498 69.4829 18.9473 69.4829 18.266C69.4829 17.5847 69.2682 17.034 68.8389 16.614C68.4189 16.194 67.8636 15.984 67.1729 15.984C66.4822 15.984 65.9222 16.194 65.4929 16.614ZM77.8867 18.266C77.8867 19.0033 77.6861 19.6567 77.2847 20.226L74.0787 25H72.9727L75.3807 21.416C75.1287 21.472 74.8674 21.5 74.5967 21.5C73.6354 21.5 72.8467 21.2013 72.2307 20.604C71.6147 19.9973 71.3067 19.218 71.3067 18.266C71.3067 17.314 71.6147 16.5393 72.2307 15.942C72.8467 15.3353 73.6354 15.032 74.5967 15.032C75.5581 15.032 76.3467 15.3353 76.9627 15.942C77.5787 16.5393 77.8867 17.314 77.8867 18.266ZM72.9167 16.614C72.4967 17.034 72.2867 17.5847 72.2867 18.266C72.2867 18.9473 72.4967 19.498 72.9167 19.918C73.3461 20.338 73.9061 20.548 74.5967 20.548C75.2874 20.548 75.8427 20.338 76.2627 19.918C76.6921 19.498 76.9067 18.9473 76.9067 18.266C76.9067 17.5847 76.6921 17.034 76.2627 16.614C75.8427 16.194 75.2874 15.984 74.5967 15.984C73.9061 15.984 73.3461 16.194 72.9167 16.614ZM85.4505 23.796C84.8065 24.7107 83.8965 25.168 82.7205 25.168C81.5445 25.168 80.6299 24.7107 79.9765 23.796C79.3325 22.872 79.0105 21.64 79.0105 20.1C79.0105 18.56 79.3325 17.3327 79.9765 16.418C80.6299 15.494 81.5445 15.032 82.7205 15.032C83.8965 15.032 84.8065 15.494 85.4505 16.418C86.1039 17.3327 86.4305 18.56 86.4305 20.1C86.4305 21.64 86.1039 22.872 85.4505 23.796ZM80.7045 23.138C81.1899 23.8567 81.8619 24.216 82.7205 24.216C83.5792 24.216 84.2465 23.8567 84.7225 23.138C85.2079 22.4193 85.4505 21.4067 85.4505 20.1C85.4505 18.7933 85.2079 17.7807 84.7225 17.062C84.2465 16.3433 83.5792 15.984 82.7205 15.984C81.8619 15.984 81.1899 16.3433 80.7045 17.062C80.2285 17.7807 79.9905 18.7933 79.9905 20.1C79.9905 21.4067 80.2285 22.4193 80.7045 23.138ZM95.6689 21.08H93.1489V22.396H96.7889V23.208H93.1489V25H92.1689V23.208H90.9089V22.396H92.1689V21.08H90.9089V20.156H92.1689V15.2H95.6689C96.4809 15.2 97.1716 15.4893 97.7409 16.068C98.3196 16.6373 98.6089 17.328 98.6089 18.14C98.6089 18.9427 98.3196 19.6333 97.7409 20.212C97.1716 20.7907 96.4809 21.08 95.6689 21.08ZM93.1489 16.124V20.156H95.6689C96.2102 20.156 96.6722 19.96 97.0549 19.568C97.4376 19.1667 97.6289 18.6907 97.6289 18.14C97.6289 17.58 97.4376 17.104 97.0549 16.712C96.6722 16.32 96.2102 16.124 95.6689 16.124H93.1489Z" fill="white"/>
</svg>
