<svg width="121" height="40" viewBox="0 0 121 40" fill="none" xmlns="http://www.w3.org/2000/svg">
<rect width="121" height="40" rx="20" fill="#F03F29"/>
<path d="M29.226 23.698C28.246 24.678 27.0467 25.168 25.628 25.168C24.2093 25.168 23.01 24.678 22.03 23.698C21.05 22.7087 20.56 21.5093 20.56 20.1C20.56 18.6907 21.05 17.496 22.03 16.516C23.01 15.5267 24.2093 15.032 25.628 15.032C27.0467 15.032 28.246 15.5267 29.226 16.516C30.206 17.496 30.696 18.6907 30.696 20.1C30.696 21.5093 30.206 22.7087 29.226 23.698ZM22.716 23.026C23.5 23.8193 24.4707 24.216 25.628 24.216C26.7853 24.216 27.756 23.8193 28.54 23.026C29.324 22.2233 29.716 21.248 29.716 20.1C29.716 18.952 29.324 17.9813 28.54 17.188C27.756 16.3853 26.7853 15.984 25.628 15.984C24.4707 15.984 23.5 16.3853 22.716 17.188C21.932 17.9813 21.54 18.952 21.54 20.1C21.54 21.248 21.932 22.2233 22.716 23.026ZM37.272 18V18.896H34.794V25H33.87V18.896H31.392V18H37.272ZM43.718 15.2H44.558V25H43.578V16.278L41.38 16.936L41.128 16.096L43.718 15.2ZM49.3858 19.148C50.3004 19.148 51.0751 19.4187 51.7098 19.96C52.3538 20.492 52.6758 21.2247 52.6758 22.158C52.6758 23.0913 52.3538 23.8287 51.7098 24.37C51.0751 24.902 50.3004 25.168 49.3858 25.168C48.6484 25.168 47.9904 24.9907 47.4118 24.636C46.8331 24.272 46.4411 23.754 46.2358 23.082L47.0618 22.606C47.2018 23.1287 47.4771 23.53 47.8878 23.81C48.3078 24.0807 48.8071 24.216 49.3858 24.216C50.0578 24.216 50.6084 24.0387 51.0378 23.684C51.4764 23.32 51.6958 22.8113 51.6958 22.158C51.6958 21.5047 51.4764 21.0007 51.0378 20.646C50.6084 20.282 50.0578 20.1 49.3858 20.1H46.7258L47.0758 15.2H52.3258V16.124H47.9438L47.7338 19.148H49.3858ZM57.2576 19.274C58.0416 19.3767 58.6856 19.68 59.1896 20.184C59.7029 20.6787 59.9596 21.3367 59.9596 22.158C59.9596 23.0913 59.6376 23.8287 58.9936 24.37C58.3589 24.902 57.5843 25.168 56.6696 25.168C55.9416 25.168 55.2929 25 54.7236 24.664C54.1543 24.328 53.7529 23.8473 53.5196 23.222L54.3316 22.746C54.4903 23.2313 54.7749 23.6 55.1856 23.852C55.5963 24.0947 56.0909 24.216 56.6696 24.216C57.3416 24.216 57.8923 24.0387 58.3216 23.684C58.7603 23.32 58.9796 22.8113 58.9796 22.158C58.9796 21.5047 58.7603 21.0007 58.3216 20.646C57.8923 20.282 57.3416 20.1 56.6696 20.1V20.086L56.6556 20.1H56.3896L55.9696 19.456L58.4056 16.124H53.7996V15.2H59.5396V16.124L57.2576 19.274ZM71.0234 18.266C71.0234 19.0033 70.8228 19.6567 70.4214 20.226L67.2154 25H66.1094L68.5174 21.416C68.2654 21.472 68.0041 21.5 67.7334 21.5C66.7721 21.5 65.9834 21.2013 65.3674 20.604C64.7514 19.9973 64.4434 19.218 64.4434 18.266C64.4434 17.314 64.7514 16.5393 65.3674 15.942C65.9834 15.3353 66.7721 15.032 67.7334 15.032C68.6948 15.032 69.4834 15.3353 70.0994 15.942C70.7154 16.5393 71.0234 17.314 71.0234 18.266ZM66.0534 16.614C65.6334 17.034 65.4234 17.5847 65.4234 18.266C65.4234 18.9473 65.6334 19.498 66.0534 19.918C66.4828 20.338 67.0428 20.548 67.7334 20.548C68.4241 20.548 68.9794 20.338 69.3994 19.918C69.8288 19.498 70.0434 18.9473 70.0434 18.266C70.0434 17.5847 69.8288 17.034 69.3994 16.614C68.9794 16.194 68.4241 15.984 67.7334 15.984C67.0428 15.984 66.4828 16.194 66.0534 16.614ZM78.4473 18.266C78.4473 19.0033 78.2466 19.6567 77.8453 20.226L74.6393 25H73.5333L75.9413 21.416C75.6893 21.472 75.4279 21.5 75.1573 21.5C74.1959 21.5 73.4073 21.2013 72.7913 20.604C72.1753 19.9973 71.8673 19.218 71.8673 18.266C71.8673 17.314 72.1753 16.5393 72.7913 15.942C73.4073 15.3353 74.1959 15.032 75.1573 15.032C76.1186 15.032 76.9073 15.3353 77.5233 15.942C78.1393 16.5393 78.4473 17.314 78.4473 18.266ZM73.4773 16.614C73.0573 17.034 72.8473 17.5847 72.8473 18.266C72.8473 18.9473 73.0573 19.498 73.4773 19.918C73.9066 20.338 74.4666 20.548 75.1573 20.548C75.8479 20.548 76.4033 20.338 76.8233 19.918C77.2526 19.498 77.4673 18.9473 77.4673 18.266C77.4673 17.5847 77.2526 17.034 76.8233 16.614C76.4033 16.194 75.8479 15.984 75.1573 15.984C74.4666 15.984 73.9066 16.194 73.4773 16.614ZM86.0111 23.796C85.3671 24.7107 84.4571 25.168 83.2811 25.168C82.1051 25.168 81.1904 24.7107 80.5371 23.796C79.8931 22.872 79.5711 21.64 79.5711 20.1C79.5711 18.56 79.8931 17.3327 80.5371 16.418C81.1904 15.494 82.1051 15.032 83.2811 15.032C84.4571 15.032 85.3671 15.494 86.0111 16.418C86.6644 17.3327 86.9911 18.56 86.9911 20.1C86.9911 21.64 86.6644 22.872 86.0111 23.796ZM81.2651 23.138C81.7504 23.8567 82.4224 24.216 83.2811 24.216C84.1398 24.216 84.8071 23.8567 85.2831 23.138C85.7684 22.4193 86.0111 21.4067 86.0111 20.1C86.0111 18.7933 85.7684 17.7807 85.2831 17.062C84.8071 16.3433 84.1398 15.984 83.2811 15.984C82.4224 15.984 81.7504 16.3433 81.2651 17.062C80.7891 17.7807 80.5511 18.7933 80.5511 20.1C80.5511 21.4067 80.7891 22.4193 81.2651 23.138ZM96.2295 21.08H93.7095V22.396H97.3495V23.208H93.7095V25H92.7295V23.208H91.4695V22.396H92.7295V21.08H91.4695V20.156H92.7295V15.2H96.2295C97.0415 15.2 97.7321 15.4893 98.3015 16.068C98.8801 16.6373 99.1695 17.328 99.1695 18.14C99.1695 18.9427 98.8801 19.6333 98.3015 20.212C97.7321 20.7907 97.0415 21.08 96.2295 21.08ZM93.7095 16.124V20.156H96.2295C96.7708 20.156 97.2328 19.96 97.6155 19.568C97.9981 19.1667 98.1895 18.6907 98.1895 18.14C98.1895 17.58 97.9981 17.104 97.6155 16.712C97.2328 16.32 96.7708 16.124 96.2295 16.124H93.7095Z" fill="white"/>
</svg>
