<svg width="121" height="40" viewBox="0 0 121 40" fill="none" xmlns="http://www.w3.org/2000/svg">
<rect width="121" height="40" rx="20" fill="#F03F29"/>
<path d="M29.226 23.698C28.246 24.678 27.0467 25.168 25.628 25.168C24.2093 25.168 23.01 24.678 22.03 23.698C21.05 22.7087 20.56 21.5093 20.56 20.1C20.56 18.6907 21.05 17.496 22.03 16.516C23.01 15.5267 24.2093 15.032 25.628 15.032C27.0467 15.032 28.246 15.5267 29.226 16.516C30.206 17.496 30.696 18.6907 30.696 20.1C30.696 21.5093 30.206 22.7087 29.226 23.698ZM22.716 23.026C23.5 23.8193 24.4707 24.216 25.628 24.216C26.7853 24.216 27.756 23.8193 28.54 23.026C29.324 22.2233 29.716 21.248 29.716 20.1C29.716 18.952 29.324 17.9813 28.54 17.188C27.756 16.3853 26.7853 15.984 25.628 15.984C24.4707 15.984 23.5 16.3853 22.716 17.188C21.932 17.9813 21.54 18.952 21.54 20.1C21.54 21.248 21.932 22.2233 22.716 23.026ZM37.272 18V18.896H34.794V25H33.87V18.896H31.392V18H37.272ZM43.718 15.2H44.558V25H43.578V16.278L41.38 16.936L41.128 16.096L43.718 15.2ZM52.6758 18.266C52.6758 19.0033 52.4751 19.6567 52.0738 20.226L48.8678 25H47.7618L50.1698 21.416C49.9178 21.472 49.6564 21.5 49.3858 21.5C48.4244 21.5 47.6358 21.2013 47.0198 20.604C46.4038 19.9973 46.0958 19.218 46.0958 18.266C46.0958 17.314 46.4038 16.5393 47.0198 15.942C47.6358 15.3353 48.4244 15.032 49.3858 15.032C50.3471 15.032 51.1358 15.3353 51.7518 15.942C52.3678 16.5393 52.6758 17.314 52.6758 18.266ZM47.7058 16.614C47.2858 17.034 47.0758 17.5847 47.0758 18.266C47.0758 18.9473 47.2858 19.498 47.7058 19.918C48.1351 20.338 48.6951 20.548 49.3858 20.548C50.0764 20.548 50.6318 20.338 51.0518 19.918C51.4811 19.498 51.6958 18.9473 51.6958 18.266C51.6958 17.5847 51.4811 17.034 51.0518 16.614C50.6318 16.194 50.0764 15.984 49.3858 15.984C48.6951 15.984 48.1351 16.194 47.7058 16.614ZM60.2396 23.796C59.5956 24.7107 58.6856 25.168 57.5096 25.168C56.3336 25.168 55.4189 24.7107 54.7656 23.796C54.1216 22.872 53.7996 21.64 53.7996 20.1C53.7996 18.56 54.1216 17.3327 54.7656 16.418C55.4189 15.494 56.3336 15.032 57.5096 15.032C58.6856 15.032 59.5956 15.494 60.2396 16.418C60.8929 17.3327 61.2196 18.56 61.2196 20.1C61.2196 21.64 60.8929 22.872 60.2396 23.796ZM55.4936 23.138C55.9789 23.8567 56.6509 24.216 57.5096 24.216C58.3683 24.216 59.0356 23.8567 59.5116 23.138C59.9969 22.4193 60.2396 21.4067 60.2396 20.1C60.2396 18.7933 59.9969 17.7807 59.5116 17.062C59.0356 16.3433 58.3683 15.984 57.5096 15.984C56.6509 15.984 55.9789 16.3433 55.4936 17.062C55.0176 17.7807 54.7796 18.7933 54.7796 20.1C54.7796 21.4067 55.0176 22.4193 55.4936 23.138ZM72.418 18.266C72.418 19.0033 72.2173 19.6567 71.816 20.226L68.61 25H67.504L69.912 21.416C69.66 21.472 69.3986 21.5 69.128 21.5C68.1666 21.5 67.378 21.2013 66.762 20.604C66.146 19.9973 65.838 19.218 65.838 18.266C65.838 17.314 66.146 16.5393 66.762 15.942C67.378 15.3353 68.1666 15.032 69.128 15.032C70.0893 15.032 70.878 15.3353 71.494 15.942C72.11 16.5393 72.418 17.314 72.418 18.266ZM67.448 16.614C67.028 17.034 66.818 17.5847 66.818 18.266C66.818 18.9473 67.028 19.498 67.448 19.918C67.8773 20.338 68.4373 20.548 69.128 20.548C69.8186 20.548 70.374 20.338 70.794 19.918C71.2233 19.498 71.438 18.9473 71.438 18.266C71.438 17.5847 71.2233 17.034 70.794 16.614C70.374 16.194 69.8186 15.984 69.128 15.984C68.4373 15.984 67.8773 16.194 67.448 16.614ZM79.8418 18.266C79.8418 19.0033 79.6411 19.6567 79.2398 20.226L76.0338 25H74.9278L77.3358 21.416C77.0838 21.472 76.8225 21.5 76.5518 21.5C75.5905 21.5 74.8018 21.2013 74.1858 20.604C73.5698 19.9973 73.2618 19.218 73.2618 18.266C73.2618 17.314 73.5698 16.5393 74.1858 15.942C74.8018 15.3353 75.5905 15.032 76.5518 15.032C77.5131 15.032 78.3018 15.3353 78.9178 15.942C79.5338 16.5393 79.8418 17.314 79.8418 18.266ZM74.8718 16.614C74.4518 17.034 74.2418 17.5847 74.2418 18.266C74.2418 18.9473 74.4518 19.498 74.8718 19.918C75.3011 20.338 75.8611 20.548 76.5518 20.548C77.2425 20.548 77.7978 20.338 78.2178 19.918C78.6471 19.498 78.8618 18.9473 78.8618 18.266C78.8618 17.5847 78.6471 17.034 78.2178 16.614C77.7978 16.194 77.2425 15.984 76.5518 15.984C75.8611 15.984 75.3011 16.194 74.8718 16.614ZM87.4056 23.796C86.7616 24.7107 85.8516 25.168 84.6756 25.168C83.4996 25.168 82.585 24.7107 81.9316 23.796C81.2876 22.872 80.9656 21.64 80.9656 20.1C80.9656 18.56 81.2876 17.3327 81.9316 16.418C82.585 15.494 83.4996 15.032 84.6756 15.032C85.8516 15.032 86.7616 15.494 87.4056 16.418C88.059 17.3327 88.3856 18.56 88.3856 20.1C88.3856 21.64 88.059 22.872 87.4056 23.796ZM82.6596 23.138C83.145 23.8567 83.817 24.216 84.6756 24.216C85.5343 24.216 86.2016 23.8567 86.6776 23.138C87.163 22.4193 87.4056 21.4067 87.4056 20.1C87.4056 18.7933 87.163 17.7807 86.6776 17.062C86.2016 16.3433 85.5343 15.984 84.6756 15.984C83.817 15.984 83.145 16.3433 82.6596 17.062C82.1836 17.7807 81.9456 18.7933 81.9456 20.1C81.9456 21.4067 82.1836 22.4193 82.6596 23.138ZM97.624 21.08H95.104V22.396H98.744V23.208H95.104V25H94.124V23.208H92.864V22.396H94.124V21.08H92.864V20.156H94.124V15.2H97.624C98.436 15.2 99.1267 15.4893 99.696 16.068C100.275 16.6373 100.564 17.328 100.564 18.14C100.564 18.9427 100.275 19.6333 99.696 20.212C99.1267 20.7907 98.436 21.08 97.624 21.08ZM95.104 16.124V20.156H97.624C98.1653 20.156 98.6273 19.96 99.01 19.568C99.3927 19.1667 99.584 18.6907 99.584 18.14C99.584 17.58 99.3927 17.104 99.01 16.712C98.6273 16.32 98.1653 16.124 97.624 16.124H95.104Z" fill="white"/>
</svg>
