<svg width="121" height="40" viewBox="0 0 121 40" fill="none" xmlns="http://www.w3.org/2000/svg">
<rect width="121" height="40" rx="20" fill="#F03F29"/>
<path d="M29.226 23.698C28.246 24.678 27.0467 25.168 25.628 25.168C24.2093 25.168 23.01 24.678 22.03 23.698C21.05 22.7087 20.56 21.5093 20.56 20.1C20.56 18.6907 21.05 17.496 22.03 16.516C23.01 15.5267 24.2093 15.032 25.628 15.032C27.0467 15.032 28.246 15.5267 29.226 16.516C30.206 17.496 30.696 18.6907 30.696 20.1C30.696 21.5093 30.206 22.7087 29.226 23.698ZM22.716 23.026C23.5 23.8193 24.4707 24.216 25.628 24.216C26.7853 24.216 27.756 23.8193 28.54 23.026C29.324 22.2233 29.716 21.248 29.716 20.1C29.716 18.952 29.324 17.9813 28.54 17.188C27.756 16.3853 26.7853 15.984 25.628 15.984C24.4707 15.984 23.5 16.3853 22.716 17.188C21.932 17.9813 21.54 18.952 21.54 20.1C21.54 21.248 21.932 22.2233 22.716 23.026ZM37.272 18V18.896H34.794V25H33.87V18.896H31.392V18H37.272ZM41.478 25V24.118L45.006 20.562C46.014 19.554 46.518 18.6907 46.518 17.972C46.518 17.3467 46.322 16.8613 45.93 16.516C45.5473 16.1613 45.0853 15.984 44.544 15.984C43.536 15.984 42.8033 16.446 42.346 17.37L41.52 16.88C41.828 16.2733 42.248 15.816 42.78 15.508C43.312 15.1907 43.9 15.032 44.544 15.032C45.328 15.032 46.014 15.298 46.602 15.83C47.1993 16.3527 47.498 17.0667 47.498 17.972C47.498 18.5413 47.3393 19.0873 47.022 19.61C46.7046 20.1327 46.2566 20.6833 45.678 21.262L42.878 24.048H47.708V25H41.478ZM48.28 15.2H54.3V16.124L50.604 25H49.582L53.278 16.124H48.28V15.2ZM57.6633 15.2H58.5033V25H57.5233V16.278L55.3253 16.936L55.0733 16.096L57.6633 15.2ZM70.1211 18.266C70.1211 19.0033 69.9204 19.6567 69.5191 20.226L66.3131 25H65.2071L67.6151 21.416C67.3631 21.472 67.1018 21.5 66.8311 21.5C65.8698 21.5 65.0811 21.2013 64.4651 20.604C63.8491 19.9973 63.5411 19.218 63.5411 18.266C63.5411 17.314 63.8491 16.5393 64.4651 15.942C65.0811 15.3353 65.8698 15.032 66.8311 15.032C67.7924 15.032 68.5811 15.3353 69.1971 15.942C69.8131 16.5393 70.1211 17.314 70.1211 18.266ZM65.1511 16.614C64.7311 17.034 64.5211 17.5847 64.5211 18.266C64.5211 18.9473 64.7311 19.498 65.1511 19.918C65.5804 20.338 66.1404 20.548 66.8311 20.548C67.5218 20.548 68.0771 20.338 68.4971 19.918C68.9264 19.498 69.1411 18.9473 69.1411 18.266C69.1411 17.5847 68.9264 17.034 68.4971 16.614C68.0771 16.194 67.5218 15.984 66.8311 15.984C66.1404 15.984 65.5804 16.194 65.1511 16.614ZM77.5449 18.266C77.5449 19.0033 77.3443 19.6567 76.9429 20.226L73.7369 25H72.6309L75.0389 21.416C74.7869 21.472 74.5256 21.5 74.2549 21.5C73.2936 21.5 72.5049 21.2013 71.8889 20.604C71.2729 19.9973 70.9649 19.218 70.9649 18.266C70.9649 17.314 71.2729 16.5393 71.8889 15.942C72.5049 15.3353 73.2936 15.032 74.2549 15.032C75.2163 15.032 76.0049 15.3353 76.6209 15.942C77.2369 16.5393 77.5449 17.314 77.5449 18.266ZM72.5749 16.614C72.1549 17.034 71.9449 17.5847 71.9449 18.266C71.9449 18.9473 72.1549 19.498 72.5749 19.918C73.0043 20.338 73.5643 20.548 74.2549 20.548C74.9456 20.548 75.5009 20.338 75.9209 19.918C76.3503 19.498 76.5649 18.9473 76.5649 18.266C76.5649 17.5847 76.3503 17.034 75.9209 16.614C75.5009 16.194 74.9456 15.984 74.2549 15.984C73.5643 15.984 73.0043 16.194 72.5749 16.614ZM85.1088 23.796C84.4648 24.7107 83.5548 25.168 82.3788 25.168C81.2028 25.168 80.2881 24.7107 79.6348 23.796C78.9908 22.872 78.6688 21.64 78.6688 20.1C78.6688 18.56 78.9908 17.3327 79.6348 16.418C80.2881 15.494 81.2028 15.032 82.3788 15.032C83.5548 15.032 84.4648 15.494 85.1088 16.418C85.7621 17.3327 86.0888 18.56 86.0888 20.1C86.0888 21.64 85.7621 22.872 85.1088 23.796ZM80.3628 23.138C80.8481 23.8567 81.5201 24.216 82.3788 24.216C83.2374 24.216 83.9048 23.8567 84.3808 23.138C84.8661 22.4193 85.1088 21.4067 85.1088 20.1C85.1088 18.7933 84.8661 17.7807 84.3808 17.062C83.9048 16.3433 83.2374 15.984 82.3788 15.984C81.5201 15.984 80.8481 16.3433 80.3628 17.062C79.8868 17.7807 79.6488 18.7933 79.6488 20.1C79.6488 21.4067 79.8868 22.4193 80.3628 23.138ZM95.3271 21.08H92.8071V22.396H96.4471V23.208H92.8071V25H91.8271V23.208H90.5671V22.396H91.8271V21.08H90.5671V20.156H91.8271V15.2H95.3271C96.1391 15.2 96.8298 15.4893 97.3991 16.068C97.9778 16.6373 98.2671 17.328 98.2671 18.14C98.2671 18.9427 97.9778 19.6333 97.3991 20.212C96.8298 20.7907 96.1391 21.08 95.3271 21.08ZM92.8071 16.124V20.156H95.3271C95.8684 20.156 96.3304 19.96 96.7131 19.568C97.0958 19.1667 97.2871 18.6907 97.2871 18.14C97.2871 17.58 97.0958 17.104 96.7131 16.712C96.3304 16.32 95.8684 16.124 95.3271 16.124H92.8071Z" fill="white"/>
</svg>
