<svg width="121" height="40" viewBox="0 0 121 40" fill="none" xmlns="http://www.w3.org/2000/svg">
<rect width="121" height="40" rx="20" fill="#F03F29"/>
<path d="M29.226 23.698C28.246 24.678 27.0467 25.168 25.628 25.168C24.2093 25.168 23.01 24.678 22.03 23.698C21.05 22.7087 20.56 21.5093 20.56 20.1C20.56 18.6907 21.05 17.496 22.03 16.516C23.01 15.5267 24.2093 15.032 25.628 15.032C27.0467 15.032 28.246 15.5267 29.226 16.516C30.206 17.496 30.696 18.6907 30.696 20.1C30.696 21.5093 30.206 22.7087 29.226 23.698ZM22.716 23.026C23.5 23.8193 24.4707 24.216 25.628 24.216C26.7853 24.216 27.756 23.8193 28.54 23.026C29.324 22.2233 29.716 21.248 29.716 20.1C29.716 18.952 29.324 17.9813 28.54 17.188C27.756 16.3853 26.7853 15.984 25.628 15.984C24.4707 15.984 23.5 16.3853 22.716 17.188C21.932 17.9813 21.54 18.952 21.54 20.1C21.54 21.248 21.932 22.2233 22.716 23.026ZM37.272 18V18.896H34.794V25H33.87V18.896H31.392V18H37.272ZM44.628 19.148C45.5426 19.148 46.3173 19.4187 46.952 19.96C47.596 20.492 47.918 21.2247 47.918 22.158C47.918 23.0913 47.596 23.8287 46.952 24.37C46.3173 24.902 45.5426 25.168 44.628 25.168C43.8906 25.168 43.2326 24.9907 42.654 24.636C42.0753 24.272 41.6833 23.754 41.478 23.082L42.304 22.606C42.444 23.1287 42.7193 23.53 43.13 23.81C43.55 24.0807 44.0493 24.216 44.628 24.216C45.3 24.216 45.8506 24.0387 46.28 23.684C46.7186 23.32 46.938 22.8113 46.938 22.158C46.938 21.5047 46.7186 21.0007 46.28 20.646C45.8506 20.282 45.3 20.1 44.628 20.1H41.968L42.318 15.2H47.568V16.124H43.186L42.976 19.148H44.628ZM51.1418 15.2H51.9818V25H51.0018V16.278L48.8038 16.936L48.5518 16.096L51.1418 15.2ZM58.5876 19.946C59.0823 20.1793 59.4743 20.506 59.7636 20.926C60.0623 21.3367 60.2116 21.808 60.2116 22.34C60.2116 23.2267 59.8989 23.922 59.2736 24.426C58.6483 24.9207 57.8689 25.168 56.9356 25.168C56.0023 25.168 55.2229 24.9207 54.5976 24.426C53.9723 23.922 53.6596 23.2267 53.6596 22.34C53.6596 21.808 53.8043 21.3367 54.0936 20.926C54.3923 20.506 54.7889 20.1793 55.2836 19.946C54.4156 19.4513 53.9816 18.7187 53.9816 17.748C53.9816 16.8707 54.2709 16.1987 54.8496 15.732C55.4376 15.2653 56.1329 15.032 56.9356 15.032C57.7383 15.032 58.4289 15.2653 59.0076 15.732C59.5956 16.1987 59.8896 16.8707 59.8896 17.748C59.8896 18.7187 59.4556 19.4513 58.5876 19.946ZM58.3356 16.418C57.9623 16.1287 57.4956 15.984 56.9356 15.984C56.3756 15.984 55.9043 16.1287 55.5216 16.418C55.1483 16.7073 54.9616 17.1507 54.9616 17.748C54.9616 18.308 55.1529 18.742 55.5356 19.05C55.9276 19.358 56.3943 19.512 56.9356 19.512C57.4769 19.512 57.9389 19.358 58.3216 19.05C58.7136 18.742 58.9096 18.308 58.9096 17.748C58.9096 17.1507 58.7183 16.7073 58.3356 16.418ZM55.2696 23.74C55.6896 24.0573 56.2449 24.216 56.9356 24.216C57.6263 24.216 58.1816 24.0573 58.6016 23.74C59.0216 23.4133 59.2316 22.9467 59.2316 22.34C59.2316 21.7333 59.0216 21.2713 58.6016 20.954C58.1816 20.6273 57.6263 20.464 56.9356 20.464C56.2449 20.464 55.6896 20.6273 55.2696 20.954C54.8496 21.2713 54.6396 21.7333 54.6396 22.34C54.6396 22.9467 54.8496 23.4133 55.2696 23.74ZM71.2695 18.266C71.2695 19.0033 71.0689 19.6567 70.6675 20.226L67.4615 25H66.3555L68.7635 21.416C68.5115 21.472 68.2502 21.5 67.9795 21.5C67.0182 21.5 66.2295 21.2013 65.6135 20.604C64.9975 19.9973 64.6895 19.218 64.6895 18.266C64.6895 17.314 64.9975 16.5393 65.6135 15.942C66.2295 15.3353 67.0182 15.032 67.9795 15.032C68.9409 15.032 69.7295 15.3353 70.3455 15.942C70.9615 16.5393 71.2695 17.314 71.2695 18.266ZM66.2995 16.614C65.8795 17.034 65.6695 17.5847 65.6695 18.266C65.6695 18.9473 65.8795 19.498 66.2995 19.918C66.7289 20.338 67.2889 20.548 67.9795 20.548C68.6702 20.548 69.2255 20.338 69.6455 19.918C70.0749 19.498 70.2895 18.9473 70.2895 18.266C70.2895 17.5847 70.0749 17.034 69.6455 16.614C69.2255 16.194 68.6702 15.984 67.9795 15.984C67.2889 15.984 66.7289 16.194 66.2995 16.614ZM78.6934 18.266C78.6934 19.0033 78.4927 19.6567 78.0914 20.226L74.8854 25H73.7794L76.1874 21.416C75.9354 21.472 75.674 21.5 75.4034 21.5C74.442 21.5 73.6534 21.2013 73.0374 20.604C72.4214 19.9973 72.1134 19.218 72.1134 18.266C72.1134 17.314 72.4214 16.5393 73.0374 15.942C73.6534 15.3353 74.442 15.032 75.4034 15.032C76.3647 15.032 77.1534 15.3353 77.7694 15.942C78.3854 16.5393 78.6934 17.314 78.6934 18.266ZM73.7234 16.614C73.3034 17.034 73.0934 17.5847 73.0934 18.266C73.0934 18.9473 73.3034 19.498 73.7234 19.918C74.1527 20.338 74.7127 20.548 75.4034 20.548C76.094 20.548 76.6494 20.338 77.0694 19.918C77.4987 19.498 77.7134 18.9473 77.7134 18.266C77.7134 17.5847 77.4987 17.034 77.0694 16.614C76.6494 16.194 76.094 15.984 75.4034 15.984C74.7127 15.984 74.1527 16.194 73.7234 16.614ZM86.2572 23.796C85.6132 24.7107 84.7032 25.168 83.5272 25.168C82.3512 25.168 81.4365 24.7107 80.7832 23.796C80.1392 22.872 79.8172 21.64 79.8172 20.1C79.8172 18.56 80.1392 17.3327 80.7832 16.418C81.4365 15.494 82.3512 15.032 83.5272 15.032C84.7032 15.032 85.6132 15.494 86.2572 16.418C86.9105 17.3327 87.2372 18.56 87.2372 20.1C87.2372 21.64 86.9105 22.872 86.2572 23.796ZM81.5112 23.138C81.9965 23.8567 82.6685 24.216 83.5272 24.216C84.3859 24.216 85.0532 23.8567 85.5292 23.138C86.0145 22.4193 86.2572 21.4067 86.2572 20.1C86.2572 18.7933 86.0145 17.7807 85.5292 17.062C85.0532 16.3433 84.3859 15.984 83.5272 15.984C82.6685 15.984 81.9965 16.3433 81.5112 17.062C81.0352 17.7807 80.7972 18.7933 80.7972 20.1C80.7972 21.4067 81.0352 22.4193 81.5112 23.138ZM96.4755 21.08H93.9555V22.396H97.5955V23.208H93.9555V25H92.9755V23.208H91.7155V22.396H92.9755V21.08H91.7155V20.156H92.9755V15.2H96.4755C97.2875 15.2 97.9782 15.4893 98.5475 16.068C99.1262 16.6373 99.4155 17.328 99.4155 18.14C99.4155 18.9427 99.1262 19.6333 98.5475 20.212C97.9782 20.7907 97.2875 21.08 96.4755 21.08ZM93.9555 16.124V20.156H96.4755C97.0169 20.156 97.4789 19.96 97.8615 19.568C98.2442 19.1667 98.4355 18.6907 98.4355 18.14C98.4355 17.58 98.2442 17.104 97.8615 16.712C97.4789 16.32 97.0169 16.124 96.4755 16.124H93.9555Z" fill="white"/>
</svg>
