<svg width="95" height="95" viewBox="0 0 95 95" fill="none" xmlns="http://www.w3.org/2000/svg">
<circle cx="47.5" cy="47.5" r="47.5" fill="#F03F29" fill-opacity="0.25"/>
<circle cx="47.5" cy="47.5" r="39.5" fill="#F03F29" fill-opacity="0.5"/>
<circle cx="47.5" cy="47.5" r="26.5" fill="#F03F29"/>
<path d="M48 56C47.713 56 47.4346 55.9427 47.1648 55.8282C46.8951 55.7137 46.6712 55.561 46.4933 55.3702L36.5919 44.8359C36.1973 44.416 36 43.8817 36 43.2328C36 42.584 36.1973 42.0496 36.5919 41.6298C36.9865 41.2099 37.4888 41 38.0987 41C38.7085 41 39.2108 41.2099 39.6054 41.6298L48 50.561L56.3946 41.6298C56.7892 41.2099 57.2915 41 57.9013 41C58.5112 41 59.0135 41.2099 59.4081 41.6298C59.8027 42.0496 60 42.584 60 43.2328C60 43.8817 59.8027 44.416 59.4081 44.8359L49.5067 55.3702C49.2915 55.5992 49.0583 55.7618 48.8072 55.858C48.5561 55.9542 48.287 56.0015 48 56Z" fill="white"/>
</svg>
