<svg width="60" height="60" viewBox="0 0 60 60" fill="none" xmlns="http://www.w3.org/2000/svg">
<rect x="0.5" y="0.5" width="59" height="59" rx="14.5" fill="#F7FAFC" stroke="#E2E2E2"/>
<path d="M15.5725 37.9198C14.051 31.8185 13.2902 28.7696 14.888 26.7181C16.4839 24.6665 19.6227 24.6665 25.8948 24.6665H34.1052C40.3791 24.6665 43.5143 24.6665 45.112 26.7181C46.7098 28.7678 45.949 31.8203 44.4276 37.9198C43.4593 41.8007 42.977 43.7403 41.5335 44.871C40.0901 45.9998 38.0951 45.9998 34.1052 45.9998H25.8948C21.9049 45.9998 19.9099 45.9998 18.4665 44.871C17.023 43.7403 16.5389 41.8007 15.5725 37.9198Z" stroke="#F03F29" stroke-width="1.5"/>
<path d="M43.3002 25.5556L42.0411 20.9245C41.5552 19.1378 41.3123 18.2454 40.814 17.5716C40.3172 16.9022 39.6424 16.3865 38.8669 16.0836C38.0867 15.7778 37.1645 15.7778 35.3203 15.7778M16.7007 25.5556L17.9597 20.9245C18.4456 19.1378 18.6886 18.2454 19.1868 17.5716C19.6837 16.9022 20.3584 16.3865 21.1339 16.0836C21.9142 15.7778 22.8363 15.7778 24.6805 15.7778" stroke="#F03F29" stroke-width="1.5"/>
<path d="M24.6802 15.7778C24.6802 15.3063 24.867 14.8541 25.1996 14.5207C25.5321 14.1873 25.9832 14 26.4535 14H33.5467C34.017 14 34.468 14.1873 34.8006 14.5207C35.1331 14.8541 35.32 15.3063 35.32 15.7778C35.32 16.2493 35.1331 16.7015 34.8006 17.0349C34.468 17.3683 34.017 17.5556 33.5467 17.5556H26.4535C25.9832 17.5556 25.5321 17.3683 25.1996 17.0349C24.867 16.7015 24.6802 16.2493 24.6802 15.7778Z" stroke="#F03F29" stroke-width="1.5"/>
</svg>
