<svg width="40" height="40" viewBox="0 0 40 40" fill="none" xmlns="http://www.w3.org/2000/svg">
<rect width="40" height="40" rx="20" fill="#F03F29"/>
<path d="M9.17934 25.9402C8.03822 21.3642 7.46766 19.0776 8.66597 17.5389C9.86294 16.0002 12.217 16.0002 16.9211 16.0002H23.0789C27.7843 16.0002 30.1357 16.0002 31.334 17.5389C32.5323 19.0762 31.9618 21.3656 30.8207 25.9402C30.0945 28.8509 29.7327 30.3056 28.6501 31.1536C27.5675 32.0003 26.0713 32.0003 23.0789 32.0003H16.9211C13.9287 32.0003 12.4325 32.0003 11.3499 31.1536C10.2673 30.3056 9.90417 28.8509 9.17934 25.9402Z" stroke="white" stroke-width="1.5"/>
<path d="M29.975 16.6668L29.0307 13.1935C28.6663 11.8535 28.4841 11.1842 28.1104 10.6788C27.7377 10.1768 27.2317 9.79003 26.6501 9.56283C26.0649 9.3335 25.3733 9.3335 23.9901 9.3335M10.0254 16.6668L10.9697 13.1935C11.3341 11.8535 11.5163 11.1842 11.89 10.6788C12.2626 10.1768 12.7687 9.79003 13.3503 9.56283C13.9355 9.3335 14.6271 9.3335 16.0103 9.3335" stroke="white" stroke-width="1.5"/>
<path d="M16.0078 9.33333C16.0078 8.97971 16.1479 8.64057 16.3974 8.39052C16.6468 8.14048 16.9851 8 17.3378 8H22.6577C23.0104 8 23.3487 8.14048 23.5981 8.39052C23.8475 8.64057 23.9877 8.97971 23.9877 9.33333C23.9877 9.68696 23.8475 10.0261 23.5981 10.2761C23.3487 10.5262 23.0104 10.6667 22.6577 10.6667H17.3378C16.9851 10.6667 16.6468 10.5262 16.3974 10.2761C16.1479 10.0261 16.0078 9.68696 16.0078 9.33333Z" stroke="white" stroke-width="1.5"/>
</svg>
