<svg width="156" height="102" viewBox="0 0 156 102" fill="none" xmlns="http://www.w3.org/2000/svg">
<rect x="0.5" y="0.5" width="155" height="101" rx="9.5" stroke="#EDF0F7"/>
<rect x="58" y="20" width="40" height="40" rx="20" fill="#F03F29"/>
<g clip-path="url(#clip0_459_1402)">
<path d="M84.6667 30H71.3333C70.4493 30 69.6014 30.3512 68.9763 30.9763C68.3512 31.6014 68 32.4493 68 33.3333V43.3333C68 44.2174 68.3512 45.0652 68.9763 45.6904C69.6014 46.3155 70.4493 46.6667 71.3333 46.6667H73.75L77.4592 49.8025C77.6096 49.9298 77.8004 49.9997 77.9975 49.9997C78.1946 49.9997 78.3854 49.9298 78.5358 49.8025L82.25 46.6667H84.6667C85.5507 46.6667 86.3986 46.3155 87.0237 45.6904C87.6488 45.0652 88 44.2174 88 43.3333V33.3333C88 32.4493 87.6488 31.6014 87.0237 30.9763C86.3986 30.3512 85.5507 30 84.6667 30V30ZM86.3333 43.3333C86.3333 43.7754 86.1577 44.1993 85.8452 44.5118C85.5326 44.8244 85.1087 45 84.6667 45H82.25C81.8561 45.0001 81.4749 45.1398 81.1742 45.3942L78 48.075L74.8275 45.3942C74.5263 45.1394 74.1445 44.9997 73.75 45H71.3333C70.8913 45 70.4674 44.8244 70.1548 44.5118C69.8423 44.1993 69.6667 43.7754 69.6667 43.3333V33.3333C69.6667 32.8913 69.8423 32.4674 70.1548 32.1548C70.4674 31.8423 70.8913 31.6667 71.3333 31.6667H84.6667C85.1087 31.6667 85.5326 31.8423 85.8452 32.1548C86.1577 32.4674 86.3333 32.8913 86.3333 33.3333V43.3333Z" fill="white"/>
<path d="M73.8333 35.8337H78C78.221 35.8337 78.433 35.7459 78.5893 35.5896C78.7455 35.4333 78.8333 35.2213 78.8333 35.0003C78.8333 34.7793 78.7455 34.5673 78.5893 34.4111C78.433 34.2548 78.221 34.167 78 34.167H73.8333C73.6123 34.167 73.4004 34.2548 73.2441 34.4111C73.0878 34.5673 73 34.7793 73 35.0003C73 35.2213 73.0878 35.4333 73.2441 35.5896C73.4004 35.7459 73.6123 35.8337 73.8333 35.8337Z" fill="white"/>
<path d="M82.1667 37.5H73.8333C73.6123 37.5 73.4004 37.5878 73.2441 37.7441C73.0878 37.9004 73 38.1123 73 38.3333C73 38.5543 73.0878 38.7663 73.2441 38.9226C73.4004 39.0789 73.6123 39.1667 73.8333 39.1667H82.1667C82.3877 39.1667 82.5996 39.0789 82.7559 38.9226C82.9122 38.7663 83 38.5543 83 38.3333C83 38.1123 82.9122 37.9004 82.7559 37.7441C82.5996 37.5878 82.3877 37.5 82.1667 37.5Z" fill="white"/>
<path d="M82.1667 40.833H73.8333C73.6123 40.833 73.4004 40.9208 73.2441 41.0771C73.0878 41.2334 73 41.4453 73 41.6663C73 41.8874 73.0878 42.0993 73.2441 42.2556C73.4004 42.4119 73.6123 42.4997 73.8333 42.4997H82.1667C82.3877 42.4997 82.5996 42.4119 82.7559 42.2556C82.9122 42.0993 83 41.8874 83 41.6663C83 41.4453 82.9122 41.2334 82.7559 41.0771C82.5996 40.9208 82.3877 40.833 82.1667 40.833Z" fill="white"/>
</g>
<path d="M34.7042 74.918C35.7029 75.394 36.2022 76.1827 36.2022 77.284C36.2022 78.1427 35.8756 78.8427 35.2222 79.384C34.5782 79.916 33.7336 80.182 32.6882 80.182C30.8962 80.182 29.7109 79.426 29.1322 77.914L30.5182 77.116C30.8076 78.152 31.5309 78.67 32.6882 78.67C33.3042 78.67 33.7756 78.5393 34.1022 78.278C34.4289 78.0073 34.5922 77.648 34.5922 77.2C34.5922 76.7613 34.4336 76.4113 34.1162 76.15C33.8082 75.8793 33.3696 75.744 32.8002 75.744H31.6102V74.288H32.4782C33.0289 74.288 33.4582 74.162 33.7662 73.91C34.0742 73.658 34.2282 73.322 34.2282 72.902C34.2282 72.482 34.0882 72.1507 33.8082 71.908C33.5282 71.656 33.1269 71.53 32.6042 71.53C31.6336 71.53 30.9802 71.9733 30.6442 72.86L29.2722 72.062C29.9069 70.6993 31.0176 70.018 32.6042 70.018C33.5656 70.018 34.3449 70.2793 34.9422 70.802C35.5396 71.3153 35.8382 71.9873 35.8382 72.818C35.8382 73.742 35.4602 74.442 34.7042 74.918ZM43.0549 73H44.5669V80H43.0549V78.992C42.4856 79.7853 41.6689 80.182 40.6049 80.182C39.6436 80.182 38.8222 79.8273 38.1409 79.118C37.4596 78.3993 37.1189 77.5267 37.1189 76.5C37.1189 75.464 37.4596 74.5913 38.1409 73.882C38.8222 73.1727 39.6436 72.818 40.6049 72.818C41.6689 72.818 42.4856 73.21 43.0549 73.994V73ZM39.2609 78.11C39.6809 78.53 40.2082 78.74 40.8429 78.74C41.4776 78.74 42.0049 78.53 42.4249 78.11C42.8449 77.6807 43.0549 77.144 43.0549 76.5C43.0549 75.856 42.8449 75.324 42.4249 74.904C42.0049 74.4747 41.4776 74.26 40.8429 74.26C40.2082 74.26 39.6809 74.4747 39.2609 74.904C38.8409 75.324 38.6309 75.856 38.6309 76.5C38.6309 77.144 38.8409 77.6807 39.2609 78.11ZM52.4893 78.572H53.4273V81.876H51.9433V80H47.1413V81.876H45.6573V78.572H46.5113C46.9406 77.9653 47.1553 77.1207 47.1553 76.038V73H52.4893V78.572ZM48.1773 78.572H51.0053V74.386H48.6393V76.038C48.6393 77.0367 48.4853 77.8813 48.1773 78.572ZM59.926 73H61.438V80H59.926V78.992C59.3567 79.7853 58.54 80.182 57.476 80.182C56.5147 80.182 55.6933 79.8273 55.012 79.118C54.3307 78.3993 53.99 77.5267 53.99 76.5C53.99 75.464 54.3307 74.5913 55.012 73.882C55.6933 73.1727 56.5147 72.818 57.476 72.818C58.54 72.818 59.3567 73.21 59.926 73.994V73ZM56.132 78.11C56.552 78.53 57.0793 78.74 57.714 78.74C58.3487 78.74 58.876 78.53 59.296 78.11C59.716 77.6807 59.926 77.144 59.926 76.5C59.926 75.856 59.716 75.324 59.296 74.904C58.876 74.4747 58.3487 74.26 57.714 74.26C57.0793 74.26 56.552 74.4747 56.132 74.904C55.712 75.324 55.502 75.856 55.502 76.5C55.502 77.144 55.712 77.6807 56.132 78.11ZM68.5484 73V74.456H66.2664V80H64.7544V74.456H62.4584V73H68.5484ZM72.6235 75.38C73.3701 75.38 73.9815 75.5947 74.4575 76.024C74.9335 76.444 75.1715 76.9993 75.1715 77.69C75.1715 78.3713 74.9335 78.9267 74.4575 79.356C73.9815 79.7853 73.3701 80 72.6235 80H69.5715V73H71.0835V75.38H72.6235ZM72.6375 78.642C72.9361 78.642 73.1835 78.5533 73.3795 78.376C73.5848 78.1987 73.6875 77.97 73.6875 77.69C73.6875 77.4007 73.5848 77.172 73.3795 77.004C73.1835 76.8267 72.9361 76.738 72.6375 76.738H71.0835V78.642H72.6375ZM84.7514 76.402C85.4421 76.7193 85.7874 77.256 85.7874 78.012C85.7874 78.6 85.5867 79.0807 85.1854 79.454C84.7934 79.818 84.2287 80 83.4914 80H79.9074V73H83.2114C83.9301 73 84.4854 73.182 84.8774 73.546C85.2787 73.9007 85.4794 74.3627 85.4794 74.932C85.4794 75.5947 85.2367 76.0847 84.7514 76.402ZM83.0994 74.288H81.3494V75.842H83.0994C83.7154 75.842 84.0234 75.5807 84.0234 75.058C84.0234 74.5447 83.7154 74.288 83.0994 74.288ZM83.3514 78.684C83.9861 78.684 84.3034 78.4087 84.3034 77.858C84.3034 77.6153 84.2194 77.4287 84.0514 77.298C83.8834 77.158 83.6501 77.088 83.3514 77.088H81.3494V78.684H83.3514ZM90.3208 80.182C89.2941 80.182 88.4214 79.8273 87.7028 79.118C86.9841 78.4087 86.6248 77.536 86.6248 76.5C86.6248 75.464 86.9841 74.5913 87.7028 73.882C88.4214 73.1727 89.2941 72.818 90.3208 72.818C91.3568 72.818 92.2294 73.1727 92.9388 73.882C93.6574 74.5913 94.0168 75.464 94.0168 76.5C94.0168 77.536 93.6574 78.4087 92.9388 79.118C92.2294 79.8273 91.3568 80.182 90.3208 80.182ZM88.7668 78.082C89.1868 78.502 89.7048 78.712 90.3208 78.712C90.9368 78.712 91.4548 78.502 91.8748 78.082C92.2948 77.662 92.5048 77.1347 92.5048 76.5C92.5048 75.8653 92.2948 75.338 91.8748 74.918C91.4548 74.498 90.9368 74.288 90.3208 74.288C89.7048 74.288 89.1868 74.498 88.7668 74.918C88.3468 75.338 88.1368 75.8653 88.1368 76.5C88.1368 77.1347 88.3468 77.662 88.7668 78.082ZM101.614 73V80H100.102V74.428H96.896V80H95.384V73H101.614ZM107.33 72.818C108.292 72.818 109.113 73.1773 109.794 73.896C110.476 74.6053 110.816 75.4733 110.816 76.5C110.816 77.536 110.476 78.4087 109.794 79.118C109.113 79.8273 108.292 80.182 107.33 80.182C106.266 80.182 105.45 79.79 104.88 79.006V82.8H103.368V73H104.88V74.008C105.45 73.2147 106.266 72.818 107.33 72.818ZM105.51 78.11C105.93 78.53 106.458 78.74 107.092 78.74C107.727 78.74 108.254 78.53 108.674 78.11C109.094 77.6807 109.304 77.144 109.304 76.5C109.304 75.856 109.094 75.324 108.674 74.904C108.254 74.4747 107.727 74.26 107.092 74.26C106.458 74.26 105.93 74.4747 105.51 74.904C105.09 75.324 104.88 75.856 104.88 76.5C104.88 77.144 105.09 77.6807 105.51 78.11ZM115.491 80.182C114.464 80.182 113.591 79.8273 112.873 79.118C112.154 78.4087 111.795 77.536 111.795 76.5C111.795 75.464 112.154 74.5913 112.873 73.882C113.591 73.1727 114.464 72.818 115.491 72.818C116.527 72.818 117.399 73.1727 118.109 73.882C118.827 74.5913 119.187 75.464 119.187 76.5C119.187 77.536 118.827 78.4087 118.109 79.118C117.399 79.8273 116.527 80.182 115.491 80.182ZM113.937 78.082C114.357 78.502 114.875 78.712 115.491 78.712C116.107 78.712 116.625 78.502 117.045 78.082C117.465 77.662 117.675 77.1347 117.675 76.5C117.675 75.8653 117.465 75.338 117.045 74.918C116.625 74.498 116.107 74.288 115.491 74.288C114.875 74.288 114.357 74.498 113.937 74.918C113.517 75.338 113.307 75.8653 113.307 76.5C113.307 77.1347 113.517 77.662 113.937 78.082ZM123.858 80.182C122.803 80.182 121.921 79.8273 121.212 79.118C120.512 78.4087 120.162 77.536 120.162 76.5C120.162 75.4547 120.512 74.582 121.212 73.882C121.921 73.1727 122.803 72.818 123.858 72.818C124.539 72.818 125.16 72.9813 125.72 73.308C126.28 73.6347 126.7 74.0733 126.98 74.624L125.678 75.38C125.519 75.044 125.277 74.7827 124.95 74.596C124.633 74.4 124.264 74.302 123.844 74.302C123.228 74.302 122.71 74.512 122.29 74.932C121.879 75.352 121.674 75.8747 121.674 76.5C121.674 77.1253 121.879 77.648 122.29 78.068C122.71 78.488 123.228 78.698 123.844 78.698C124.255 78.698 124.623 78.6 124.95 78.404C125.286 78.208 125.538 77.9467 125.706 77.62L127.008 78.362C126.709 78.922 126.28 79.3653 125.72 79.692C125.16 80.0187 124.539 80.182 123.858 80.182Z" fill="#1C1C1C"/>
<defs>
<clipPath id="clip0_459_1402">
<rect width="20" height="20" fill="white" transform="translate(68 30)"/>
</clipPath>
</defs>
</svg>
