<svg width="156" height="102" viewBox="0 0 156 102" fill="none" xmlns="http://www.w3.org/2000/svg">
<rect x="0.5" y="0.5" width="155" height="101" rx="9.5" stroke="#EDF0F7"/>
<rect x="58" y="20" width="40" height="40" rx="20" fill="#F03F29"/>
<g clip-path="url(#clip0_459_1406)">
<path d="M78.8335 30.8332C78.8335 30.6122 78.9213 30.4002 79.0775 30.2439C79.2338 30.0877 79.4458 29.9999 79.6668 29.9999C81.8762 30.0023 83.9944 30.881 85.5567 32.4433C87.1189 34.0056 87.9977 36.1238 88.0001 38.3332C88.0001 38.5542 87.9123 38.7662 87.756 38.9225C87.5998 39.0787 87.3878 39.1665 87.1668 39.1665C86.9458 39.1665 86.7338 39.0787 86.5775 38.9225C86.4213 38.7662 86.3335 38.5542 86.3335 38.3332C86.3315 36.5657 85.6285 34.8712 84.3786 33.6213C83.1288 32.3715 81.4343 31.6685 79.6668 31.6665C79.4458 31.6665 79.2338 31.5787 79.0775 31.4225C78.9213 31.2662 78.8335 31.0542 78.8335 30.8332ZM79.6668 34.9999C80.5509 34.9999 81.3987 35.3511 82.0238 35.9762C82.6489 36.6013 83.0001 37.4491 83.0001 38.3332C83.0001 38.5542 83.0879 38.7662 83.2442 38.9225C83.4005 39.0787 83.6125 39.1665 83.8335 39.1665C84.0545 39.1665 84.2664 39.0787 84.4227 38.9225C84.579 38.7662 84.6668 38.5542 84.6668 38.3332C84.6655 37.0075 84.1383 35.7365 83.2009 34.7991C82.2635 33.8617 80.9925 33.3345 79.6668 33.3332C79.4458 33.3332 79.2338 33.421 79.0775 33.5773C78.9213 33.7336 78.8335 33.9455 78.8335 34.1665C78.8335 34.3875 78.9213 34.5995 79.0775 34.7558C79.2338 34.9121 79.4458 34.9999 79.6668 34.9999ZM87.2443 43.949C87.7272 44.4333 87.9984 45.0893 87.9984 45.7732C87.9984 46.4571 87.7272 47.1131 87.2443 47.5974L86.486 48.4715C79.661 55.0057 63.0527 38.4015 69.486 31.5549L70.4443 30.7215C70.9291 30.2521 71.5793 29.9924 72.2541 29.9986C72.9289 30.0049 73.5741 30.2765 74.0501 30.7549C74.076 30.7807 75.6201 32.7865 75.6201 32.7865C76.0783 33.2679 76.3334 33.9073 76.3323 34.5719C76.3312 35.2364 76.0741 35.875 75.6143 36.3549L74.6493 37.5682C75.1833 38.8658 75.9685 40.0451 76.9597 41.0383C77.9509 42.0315 79.1286 42.819 80.4251 43.3557L81.646 42.3849C82.1259 41.9255 82.7644 41.6686 83.4287 41.6677C84.0931 41.6668 84.7323 41.9218 85.2135 42.3799C85.2135 42.3799 87.2185 43.9232 87.2443 43.949ZM86.0976 45.1607C86.0976 45.1607 84.1035 43.6265 84.0776 43.6007C83.906 43.4305 83.674 43.335 83.4322 43.335C83.1905 43.335 82.9585 43.4305 82.7868 43.6007C82.7643 43.624 81.0835 44.9632 81.0835 44.9632C80.9702 45.0534 80.8354 45.1125 80.6923 45.1347C80.5493 45.1569 80.4029 45.1414 80.2676 45.0899C78.588 44.4645 77.0624 43.4855 75.7942 42.2191C74.5259 40.9527 73.5446 39.4286 72.9168 37.7499C72.8611 37.6127 72.843 37.4633 72.8642 37.3168C72.8855 37.1704 72.9453 37.0322 73.0376 36.9165C73.0376 36.9165 74.3768 35.2349 74.3993 35.2132C74.5695 35.0415 74.665 34.8095 74.665 34.5678C74.665 34.326 74.5695 34.094 74.3993 33.9224C74.3735 33.8974 72.8393 31.9015 72.8393 31.9015C72.6651 31.7453 72.4376 31.6616 72.2037 31.6677C71.9697 31.6737 71.7469 31.769 71.581 31.934L70.6226 32.7674C65.921 38.4207 80.3135 52.0149 85.2676 47.3332L86.0268 46.4582C86.2047 46.2934 86.3115 46.0659 86.3248 45.8238C86.338 45.5817 86.2565 45.3439 86.0976 45.1607Z" fill="white"/>
</g>
<path d="M33.5752 70.2H35.1852V80H33.5752V75.758H29.3752V80H27.7652V70.2H29.3752V74.218H33.5752V70.2ZM42.5901 73H44.1021V80H42.5901V78.992C42.0207 79.7853 41.2041 80.182 40.1401 80.182C39.1787 80.182 38.3574 79.8273 37.6761 79.118C36.9947 78.3993 36.6541 77.5267 36.6541 76.5C36.6541 75.464 36.9947 74.5913 37.6761 73.882C38.3574 73.1727 39.1787 72.818 40.1401 72.818C41.2041 72.818 42.0207 73.21 42.5901 73.994V73ZM38.7961 78.11C39.2161 78.53 39.7434 78.74 40.3781 78.74C41.0127 78.74 41.5401 78.53 41.9601 78.11C42.3801 77.6807 42.5901 77.144 42.5901 76.5C42.5901 75.856 42.3801 75.324 41.9601 74.904C41.5401 74.4747 41.0127 74.26 40.3781 74.26C39.7434 74.26 39.2161 74.4747 38.7961 74.904C38.3761 75.324 38.1661 75.856 38.1661 76.5C38.1661 77.144 38.3761 77.6807 38.7961 78.11ZM54.1524 73H55.6644V80H45.8644V73H47.3764V78.572H50.0084V73H51.5204V78.572H54.1524V73ZM62.4852 73H63.6472V80H62.1632V75.548L58.5792 80H57.4172V73H58.9012V77.438L62.4852 73ZM75.0895 80H73.2835L70.4135 76.766V80H68.9015V73H70.4135V76.094L73.1295 73H74.9775L71.8975 76.43L75.0895 80ZM78.8501 80.182C77.8234 80.182 76.9507 79.8273 76.2321 79.118C75.5134 78.4087 75.1541 77.536 75.1541 76.5C75.1541 75.464 75.5134 74.5913 76.2321 73.882C76.9507 73.1727 77.8234 72.818 78.8501 72.818C79.8861 72.818 80.7587 73.1727 81.4681 73.882C82.1867 74.5913 82.5461 75.464 82.5461 76.5C82.5461 77.536 82.1867 78.4087 81.4681 79.118C80.7587 79.8273 79.8861 80.182 78.8501 80.182ZM77.2961 78.082C77.7161 78.502 78.2341 78.712 78.8501 78.712C79.4661 78.712 79.9841 78.502 80.4041 78.082C80.8241 77.662 81.0341 77.1347 81.0341 76.5C81.0341 75.8653 80.8241 75.338 80.4041 74.918C79.9841 74.498 79.4661 74.288 78.8501 74.288C78.2341 74.288 77.7161 74.498 77.2961 74.918C76.8761 75.338 76.6661 75.8653 76.6661 76.5C76.6661 77.1347 76.8761 77.662 77.2961 78.082ZM88.6313 73H90.1433V80H88.6313V77.214H85.4253V80H83.9133V73H85.4253V75.786H88.6313V73ZM97.2456 73V74.456H94.9636V80H93.4516V74.456H91.1556V73H97.2456ZM103.539 73H105.051V80H103.539V78.992C102.97 79.7853 102.153 80.182 101.089 80.182C100.128 80.182 99.3066 79.8273 98.6253 79.118C97.9439 78.3993 97.6033 77.5267 97.6033 76.5C97.6033 75.464 97.9439 74.5913 98.6253 73.882C99.3066 73.1727 100.128 72.818 101.089 72.818C102.153 72.818 102.97 73.21 103.539 73.994V73ZM99.7453 78.11C100.165 78.53 100.693 78.74 101.327 78.74C101.962 78.74 102.489 78.53 102.909 78.11C103.329 77.6807 103.539 77.144 103.539 76.5C103.539 75.856 103.329 75.324 102.909 74.904C102.489 74.4747 101.962 74.26 101.327 74.26C100.693 74.26 100.165 74.4747 99.7453 74.904C99.3253 75.324 99.1153 75.856 99.1153 76.5C99.1153 77.144 99.3253 77.6807 99.7453 78.11ZM113.002 80H111.196L108.326 76.766V80H106.814V73H108.326V76.094L111.042 73H112.89L109.81 76.43L113.002 80ZM119.367 73V74.456H117.085V80H115.573V74.456H113.277V73H119.367ZM123.442 75.38C124.188 75.38 124.8 75.5947 125.276 76.024C125.752 76.444 125.99 76.9993 125.99 77.69C125.99 78.3713 125.752 78.9267 125.276 79.356C124.8 79.7853 124.188 80 123.442 80H120.39V73H121.902V75.38H123.442ZM126.83 73H128.342V80H126.83V73ZM123.456 78.642C123.754 78.642 124.002 78.5533 124.198 78.376C124.403 78.1987 124.506 77.97 124.506 77.69C124.506 77.4007 124.403 77.172 124.198 77.004C124.002 76.8267 123.754 76.738 123.456 76.738H121.902V78.642H123.456Z" fill="#1C1C1C"/>
<defs>
<clipPath id="clip0_459_1406">
<rect width="20" height="20" fill="white" transform="translate(68 30)"/>
</clipPath>
</defs>
</svg>
