<svg width="328" height="102" viewBox="0 0 328 102" fill="none" xmlns="http://www.w3.org/2000/svg">
<rect x="0.5" y="0.5" width="327" height="101" rx="9.5" stroke="#EDF0F7"/>
<rect x="144" y="20" width="40" height="40" rx="20" fill="#F03F29"/>
<g clip-path="url(#clip0_459_1410)">
<path d="M164 36.6672C163.341 36.6672 162.697 36.8627 162.148 37.229C161.6 37.5953 161.173 38.1159 160.921 38.725C160.668 39.334 160.602 40.0043 160.731 40.6509C160.86 41.2975 161.177 41.8914 161.643 42.3576C162.109 42.8238 162.703 43.1412 163.35 43.2699C163.997 43.3985 164.667 43.3325 165.276 43.0802C165.885 42.8279 166.406 42.4006 166.772 41.8525C167.138 41.3043 167.334 40.6598 167.334 40.0006C167.334 39.1165 166.982 38.2687 166.357 37.6435C165.732 37.0184 164.884 36.6672 164 36.6672ZM164 41.6672C163.671 41.6672 163.348 41.5695 163.074 41.3864C162.8 41.2032 162.587 40.9429 162.461 40.6384C162.334 40.3338 162.301 39.9987 162.366 39.6754C162.43 39.3521 162.589 39.0551 162.822 38.8221C163.055 38.589 163.352 38.4302 163.675 38.3659C163.998 38.3016 164.334 38.3346 164.638 38.4608C164.943 38.5869 165.203 38.8005 165.386 39.0746C165.569 39.3487 165.667 39.6709 165.667 40.0006C165.667 40.4426 165.491 40.8665 165.179 41.1791C164.866 41.4916 164.442 41.6672 164 41.6672Z" fill="white"/>
<path d="M171.745 41.5833L171.375 41.37C171.542 40.4637 171.542 39.5346 171.375 38.6283L171.745 38.415C172.03 38.2508 172.279 38.0323 172.479 37.7717C172.679 37.5112 172.826 37.2138 172.911 36.8965C172.996 36.5792 173.018 36.2483 172.975 35.9226C172.932 35.5969 172.826 35.2829 172.662 34.9983C172.498 34.7138 172.279 34.4644 172.019 34.2643C171.758 34.0643 171.461 33.9175 171.143 33.8324C170.826 33.7473 170.495 33.7255 170.169 33.7682C169.844 33.811 169.53 33.9175 169.245 34.0817L168.874 34.2958C168.174 33.6974 167.369 33.2335 166.5 32.9275V32.5C166.5 31.837 166.237 31.2011 165.768 30.7322C165.299 30.2634 164.663 30 164 30C163.337 30 162.701 30.2634 162.232 30.7322C161.764 31.2011 161.5 31.837 161.5 32.5V32.9275C160.631 33.2346 159.827 33.6997 159.127 34.2992L158.754 34.0833C158.18 33.7518 157.497 33.6621 156.856 33.8341C156.215 34.006 155.669 34.4254 155.338 35C155.006 35.5746 154.916 36.2574 155.088 36.8982C155.26 37.5389 155.68 38.0851 156.254 38.4167L156.624 38.63C156.458 39.5363 156.458 40.4654 156.624 41.3717L156.254 41.585C155.68 41.9165 155.26 42.4627 155.088 43.1035C154.916 43.7442 155.006 44.427 155.338 45.0017C155.669 45.5763 156.215 45.9957 156.856 46.1676C157.497 46.3395 158.18 46.2499 158.754 45.9183L159.125 45.7042C159.826 46.3027 160.631 46.7666 161.5 47.0725V47.5C161.5 48.163 161.764 48.7989 162.232 49.2678C162.701 49.7366 163.337 50 164 50C164.663 50 165.299 49.7366 165.768 49.2678C166.237 48.7989 166.5 48.163 166.5 47.5V47.0725C167.369 46.7654 168.174 46.3003 168.873 45.7008L169.246 45.9158C169.821 46.2474 170.503 46.337 171.144 46.1651C171.785 45.9932 172.331 45.5738 172.663 44.9992C172.994 44.4245 173.084 43.7417 172.912 43.101C172.74 42.4602 172.321 41.914 171.746 41.5825L171.745 41.5833ZM169.622 38.4367C169.904 39.4592 169.904 40.5391 169.622 41.5617C169.573 41.7396 169.584 41.9289 169.654 42.0998C169.724 42.2707 169.849 42.4135 170.008 42.5058L170.912 43.0275C171.103 43.138 171.243 43.3201 171.3 43.5336C171.358 43.7472 171.328 43.9747 171.217 44.1663C171.107 44.3578 170.925 44.4975 170.711 44.5548C170.498 44.6121 170.27 44.5822 170.078 44.4717L169.173 43.9483C169.013 43.8556 168.827 43.8188 168.644 43.8437C168.46 43.8686 168.291 43.9538 168.161 44.0858C167.419 44.843 166.485 45.3833 165.458 45.6483C165.279 45.6944 165.121 45.7987 165.007 45.9449C164.894 46.0911 164.833 46.2709 164.833 46.4558V47.5C164.833 47.721 164.745 47.933 164.589 48.0893C164.432 48.2455 164.22 48.3333 163.999 48.3333C163.778 48.3333 163.566 48.2455 163.41 48.0893C163.254 47.933 163.166 47.721 163.166 47.5V46.4567C163.166 46.2717 163.105 46.092 162.991 45.9458C162.878 45.7996 162.719 45.6952 162.54 45.6492C161.514 45.3831 160.58 44.8416 159.838 44.0833C159.709 43.9513 159.539 43.8661 159.356 43.8412C159.172 43.8163 158.986 43.8531 158.826 43.9458L157.923 44.4683C157.828 44.5239 157.723 44.5602 157.614 44.5751C157.505 44.59 157.394 44.5832 157.288 44.5551C157.182 44.527 157.082 44.4782 156.995 44.4114C156.908 44.3446 156.834 44.2613 156.78 44.1661C156.725 44.0709 156.689 43.9658 156.675 43.8568C156.661 43.7479 156.668 43.6372 156.697 43.5311C156.726 43.425 156.775 43.3257 156.843 43.2389C156.91 43.152 156.994 43.0793 157.089 43.025L157.993 42.5033C158.153 42.411 158.277 42.2682 158.347 42.0973C158.417 41.9264 158.429 41.7371 158.379 41.5592C158.097 40.5366 158.097 39.4567 158.379 38.4342C158.428 38.2566 158.416 38.0679 158.346 37.8977C158.276 37.7275 158.151 37.5853 157.992 37.4933L157.088 36.9717C156.897 36.8612 156.757 36.6791 156.7 36.4655C156.643 36.252 156.673 36.0244 156.783 35.8329C156.894 35.6414 157.076 35.5016 157.289 35.4444C157.503 35.3871 157.73 35.417 157.922 35.5275L158.827 36.0508C158.986 36.1438 159.172 36.181 159.356 36.1567C159.539 36.1324 159.709 36.048 159.838 35.9167C160.58 35.1595 161.515 34.6192 162.541 34.3542C162.721 34.308 162.88 34.2031 162.993 34.0563C163.107 33.9094 163.168 33.7289 163.167 33.5433V32.5C163.167 32.279 163.255 32.067 163.411 31.9107C163.567 31.7545 163.779 31.6667 164 31.6667C164.221 31.6667 164.433 31.7545 164.589 31.9107C164.746 32.067 164.833 32.279 164.833 32.5V33.5433C164.833 33.7283 164.895 33.908 165.008 34.0542C165.121 34.2004 165.28 34.3048 165.459 34.3508C166.486 34.6168 167.42 35.1582 168.162 35.9167C168.291 36.0487 168.461 36.1339 168.645 36.1588C168.828 36.1837 169.014 36.1469 169.174 36.0542L170.078 35.5317C170.172 35.4761 170.277 35.4398 170.386 35.4249C170.495 35.41 170.606 35.4168 170.712 35.4449C170.818 35.473 170.918 35.5218 171.005 35.5886C171.093 35.6554 171.166 35.7387 171.221 35.8339C171.276 35.9291 171.311 36.0342 171.325 36.1432C171.34 36.2521 171.332 36.3628 171.303 36.4689C171.275 36.575 171.225 36.6743 171.158 36.7611C171.09 36.848 171.007 36.9207 170.911 36.975L170.008 37.4967C169.849 37.5889 169.724 37.7312 169.655 37.9014C169.585 38.0716 169.573 38.2601 169.622 38.4375V38.4367Z" fill="white"/>
</g>
<path d="M77.6038 70.2V71.74H73.6838V80H72.0738V70.2H77.6038ZM82.8518 73H84.3638V80H82.8518V78.992C82.2824 79.7853 81.4658 80.182 80.4018 80.182C79.4404 80.182 78.6191 79.8273 77.9378 79.118C77.2564 78.3993 76.9158 77.5267 76.9158 76.5C76.9158 75.464 77.2564 74.5913 77.9378 73.882C78.6191 73.1727 79.4404 72.818 80.4018 72.818C81.4658 72.818 82.2824 73.21 82.8518 73.994V73ZM79.0578 78.11C79.4778 78.53 80.0051 78.74 80.6398 78.74C81.2744 78.74 81.8018 78.53 82.2218 78.11C82.6418 77.6807 82.8518 77.144 82.8518 76.5C82.8518 75.856 82.6418 75.324 82.2218 74.904C81.8018 74.4747 81.2744 74.26 80.6398 74.26C80.0051 74.26 79.4778 74.4747 79.0578 74.904C78.6378 75.324 78.4278 75.856 78.4278 76.5C78.4278 77.144 78.6378 77.6807 79.0578 78.11ZM90.0881 72.818C91.0495 72.818 91.8708 73.1773 92.5521 73.896C93.2335 74.6053 93.5741 75.4733 93.5741 76.5C93.5741 77.536 93.2335 78.4087 92.5521 79.118C91.8708 79.8273 91.0495 80.182 90.0881 80.182C89.0241 80.182 88.2075 79.79 87.6381 79.006V82.8H86.1261V73H87.6381V74.008C88.2075 73.2147 89.0241 72.818 90.0881 72.818ZM88.2681 78.11C88.6881 78.53 89.2155 78.74 89.8501 78.74C90.4848 78.74 91.0121 78.53 91.4321 78.11C91.8521 77.6807 92.0621 77.144 92.0621 76.5C92.0621 75.856 91.8521 75.324 91.4321 74.904C91.0121 74.4747 90.4848 74.26 89.8501 74.26C89.2155 74.26 88.6881 74.4747 88.2681 74.904C87.8481 75.324 87.6381 75.856 87.6381 76.5C87.6381 77.144 87.8481 77.6807 88.2681 78.11ZM100.489 73H102.001V80H100.489V78.992C99.9192 79.7853 99.1025 80.182 98.0385 80.182C97.0772 80.182 96.2558 79.8273 95.5745 79.118C94.8932 78.3993 94.5525 77.5267 94.5525 76.5C94.5525 75.464 94.8932 74.5913 95.5745 73.882C96.2558 73.1727 97.0772 72.818 98.0385 72.818C99.1025 72.818 99.9192 73.21 100.489 73.994V73ZM96.6945 78.11C97.1145 78.53 97.6418 78.74 98.2765 78.74C98.9112 78.74 99.4385 78.53 99.8585 78.11C100.279 77.6807 100.489 77.144 100.489 76.5C100.489 75.856 100.279 75.324 99.8585 74.904C99.4385 74.4747 98.9112 74.26 98.2765 74.26C97.6418 74.26 97.1145 74.4747 96.6945 74.904C96.2745 75.324 96.0645 75.856 96.0645 76.5C96.0645 77.144 96.2745 77.6807 96.6945 78.11ZM108.481 73H109.993V80H108.481V77.214H105.275V80H103.763V73H105.275V75.786H108.481V73ZM117.095 73V74.456H114.813V80H113.301V74.456H111.005V73H117.095ZM123.186 73H124.348V80H122.864V75.548L119.28 80H118.118V73H119.602V77.438L123.186 73ZM127.251 72.02V70.704H131.171V72.02H127.251ZM131.171 73H132.333V80H130.849V75.548L127.265 80H126.103V73H127.587V77.438L131.171 73ZM138.805 73H140.317V80H138.805V77.214H135.599V80H134.087V73H135.599V75.786H138.805V73ZM145.375 80.182C144.349 80.182 143.476 79.8273 142.757 79.118C142.039 78.4087 141.679 77.536 141.679 76.5C141.679 75.464 142.039 74.5913 142.757 73.882C143.476 73.1727 144.349 72.818 145.375 72.818C146.411 72.818 147.284 73.1727 147.993 73.882C148.712 74.5913 149.071 75.464 149.071 76.5C149.071 77.536 148.712 78.4087 147.993 79.118C147.284 79.8273 146.411 80.182 145.375 80.182ZM143.821 78.082C144.241 78.502 144.759 78.712 145.375 78.712C145.991 78.712 146.509 78.502 146.929 78.082C147.349 77.662 147.559 77.1347 147.559 76.5C147.559 75.8653 147.349 75.338 146.929 74.918C146.509 74.498 145.991 74.288 145.375 74.288C144.759 74.288 144.241 74.498 143.821 74.918C143.401 75.338 143.191 75.8653 143.191 76.5C143.191 77.1347 143.401 77.662 143.821 78.082ZM151.629 77.144C151.741 77.676 151.997 78.0867 152.399 78.376C152.8 78.656 153.29 78.796 153.869 78.796C154.671 78.796 155.273 78.5067 155.675 77.928L156.921 78.656C156.23 79.6733 155.208 80.182 153.855 80.182C152.716 80.182 151.797 79.8367 151.097 79.146C150.397 78.446 150.047 77.564 150.047 76.5C150.047 75.4547 150.392 74.582 151.083 73.882C151.773 73.1727 152.66 72.818 153.743 72.818C154.769 72.818 155.609 73.1773 156.263 73.896C156.925 74.6147 157.257 75.4873 157.257 76.514C157.257 76.6727 157.238 76.8827 157.201 77.144H151.629ZM151.615 75.912H155.731C155.628 75.3427 155.39 74.9133 155.017 74.624C154.653 74.3347 154.223 74.19 153.729 74.19C153.169 74.19 152.702 74.344 152.329 74.652C151.955 74.96 151.717 75.38 151.615 75.912ZM165.391 80.182C164.364 80.182 163.492 79.8273 162.773 79.118C162.054 78.4087 161.695 77.536 161.695 76.5C161.695 75.464 162.054 74.5913 162.773 73.882C163.492 73.1727 164.364 72.818 165.391 72.818C166.427 72.818 167.3 73.1727 168.009 73.882C168.728 74.5913 169.087 75.464 169.087 76.5C169.087 77.536 168.728 78.4087 168.009 79.118C167.3 79.8273 166.427 80.182 165.391 80.182ZM163.837 78.082C164.257 78.502 164.775 78.712 165.391 78.712C166.007 78.712 166.525 78.502 166.945 78.082C167.365 77.662 167.575 77.1347 167.575 76.5C167.575 75.8653 167.365 75.338 166.945 74.918C166.525 74.498 166.007 74.288 165.391 74.288C164.775 74.288 164.257 74.498 163.837 74.918C163.417 75.338 163.207 75.8653 163.207 76.5C163.207 77.1347 163.417 77.662 163.837 78.082ZM173.702 80.182C172.629 80.182 171.752 79.8367 171.07 79.146C170.398 78.446 170.062 77.5547 170.062 76.472C170.062 75.2867 170.24 74.372 170.594 73.728C170.949 73.0747 171.668 72.482 172.75 71.95C172.928 71.866 173.189 71.7447 173.534 71.586C173.889 71.4273 174.132 71.3153 174.262 71.25C174.393 71.1753 174.556 71.0727 174.752 70.942C174.948 70.802 175.093 70.6573 175.186 70.508C175.28 70.3493 175.354 70.1627 175.41 69.948L176.642 70.662C176.605 70.8673 176.544 71.0587 176.46 71.236C176.376 71.404 176.255 71.5627 176.096 71.712C175.938 71.8613 175.798 71.9827 175.676 72.076C175.564 72.1693 175.373 72.2813 175.102 72.412C174.832 72.5427 174.631 72.636 174.5 72.692C174.379 72.748 174.146 72.846 173.8 72.986C173.184 73.2287 172.732 73.4807 172.442 73.742C172.162 73.994 171.966 74.3113 171.854 74.694C172.414 74.0593 173.175 73.742 174.136 73.742C174.958 73.742 175.672 74.036 176.278 74.624C176.894 75.212 177.202 75.9727 177.202 76.906C177.202 77.858 176.876 78.642 176.222 79.258C175.578 79.874 174.738 80.182 173.702 80.182ZM173.688 78.768C174.276 78.768 174.757 78.5953 175.13 78.25C175.504 77.8953 175.69 77.4473 175.69 76.906C175.69 76.3553 175.504 75.9027 175.13 75.548C174.766 75.1933 174.29 75.016 173.702 75.016C173.18 75.016 172.708 75.184 172.288 75.52C171.868 75.8467 171.658 76.2853 171.658 76.836C171.658 77.396 171.854 77.858 172.246 78.222C172.638 78.586 173.119 78.768 173.688 78.768ZM181.702 80.182C180.647 80.182 179.765 79.8273 179.056 79.118C178.356 78.4087 178.006 77.536 178.006 76.5C178.006 75.4547 178.356 74.582 179.056 73.882C179.765 73.1727 180.647 72.818 181.702 72.818C182.383 72.818 183.004 72.9813 183.564 73.308C184.124 73.6347 184.544 74.0733 184.824 74.624L183.522 75.38C183.363 75.044 183.12 74.7827 182.794 74.596C182.476 74.4 182.108 74.302 181.688 74.302C181.072 74.302 180.554 74.512 180.134 74.932C179.723 75.352 179.518 75.8747 179.518 76.5C179.518 77.1253 179.723 77.648 180.134 78.068C180.554 78.488 181.072 78.698 181.688 78.698C182.098 78.698 182.467 78.6 182.794 78.404C183.13 78.208 183.382 77.9467 183.55 77.62L184.852 78.362C184.553 78.922 184.124 79.3653 183.564 79.692C183.004 80.0187 182.383 80.182 181.702 80.182ZM191.757 73V80H190.245V74.456H187.907V77.06C187.907 78.1707 187.664 78.9593 187.179 79.426C186.693 79.8927 186.003 80.084 185.107 80V78.586C185.536 78.6607 185.858 78.572 186.073 78.32C186.287 78.068 186.395 77.6247 186.395 76.99V73H191.757ZM198.237 73H199.847L197.159 80.224C196.832 81.1107 196.375 81.7733 195.787 82.212C195.199 82.6507 194.517 82.8467 193.743 82.8V81.386C194.219 81.414 194.601 81.316 194.891 81.092C195.189 80.8773 195.427 80.5273 195.605 80.042L195.647 79.944L192.707 73H194.317L196.445 78.096L198.237 73ZM209.671 80H207.949L205.569 76.766V80H204.085V76.794L201.705 80H199.983L202.713 76.43L200.123 73H201.845L204.085 76.066V73H205.569V76.08L207.809 73H209.531L206.941 76.43L209.671 80ZM215.827 73H216.989V80H215.505V75.548L211.921 80H210.759V73H212.243V77.438L215.827 73ZM223.587 76.402C224.278 76.7193 224.623 77.256 224.623 78.012C224.623 78.6 224.423 79.0807 224.021 79.454C223.629 79.818 223.065 80 222.327 80H218.743V73H222.047C222.766 73 223.321 73.182 223.713 73.546C224.115 73.9007 224.315 74.3627 224.315 74.932C224.315 75.5947 224.073 76.0847 223.587 76.402ZM221.935 74.288H220.185V75.842H221.935C222.551 75.842 222.859 75.5807 222.859 75.058C222.859 74.5447 222.551 74.288 221.935 74.288ZM222.187 78.684C222.822 78.684 223.139 78.4087 223.139 77.858C223.139 77.6153 223.055 77.4287 222.887 77.298C222.719 77.158 222.486 77.088 222.187 77.088H220.185V78.684H222.187ZM231.397 73H232.909V80H231.397V78.992C230.827 79.7853 230.011 80.182 228.947 80.182C227.985 80.182 227.164 79.8273 226.483 79.118C225.801 78.3993 225.461 77.5267 225.461 76.5C225.461 75.464 225.801 74.5913 226.483 73.882C227.164 73.1727 227.985 72.818 228.947 72.818C230.011 72.818 230.827 73.21 231.397 73.994V73ZM227.603 78.11C228.023 78.53 228.55 78.74 229.185 78.74C229.819 78.74 230.347 78.53 230.767 78.11C231.187 77.6807 231.397 77.144 231.397 76.5C231.397 75.856 231.187 75.324 230.767 74.904C230.347 74.4747 229.819 74.26 229.185 74.26C228.55 74.26 228.023 74.4747 227.603 74.904C227.183 75.324 226.973 75.856 226.973 76.5C226.973 77.144 227.183 77.6807 227.603 78.11ZM239.389 73H240.901V80H239.389V77.214H236.183V80H234.671V73H236.183V75.786H239.389V73ZM247.723 73H248.885V80H247.401V75.548L243.817 80H242.655V73H244.139V77.438L247.723 73ZM251.83 77.144C251.942 77.676 252.198 78.0867 252.6 78.376C253.001 78.656 253.491 78.796 254.07 78.796C254.872 78.796 255.474 78.5067 255.876 77.928L257.122 78.656C256.431 79.6733 255.409 80.182 254.056 80.182C252.917 80.182 251.998 79.8367 251.298 79.146C250.598 78.446 250.248 77.564 250.248 76.5C250.248 75.4547 250.593 74.582 251.284 73.882C251.974 73.1727 252.861 72.818 253.944 72.818C254.97 72.818 255.81 73.1773 256.464 73.896C257.126 74.6147 257.458 75.4873 257.458 76.514C257.458 76.6727 257.439 76.8827 257.402 77.144H251.83ZM251.816 75.912H255.932C255.829 75.3427 255.591 74.9133 255.218 74.624C254.854 74.3347 254.424 74.19 253.93 74.19C253.37 74.19 252.903 74.344 252.53 74.652C252.156 74.96 251.918 75.38 251.816 75.912Z" fill="#1C1C1C"/>
<defs>
<clipPath id="clip0_459_1410">
<rect width="20" height="20" fill="white" transform="translate(154 30)"/>
</clipPath>
</defs>
</svg>
