<svg width="156" height="102" viewBox="0 0 156 102" fill="none" xmlns="http://www.w3.org/2000/svg">
<rect x="0.5" y="0.5" width="155" height="101" rx="9.5" stroke="#EDF0F7"/>
<rect x="58" y="20" width="40" height="40" rx="20" fill="#F03F29"/>
<g clip-path="url(#clip0_459_1394)">
<path d="M77.1667 40C77.3877 40 77.5996 40.0878 77.7559 40.2441C77.9122 40.4004 78 40.6123 78 40.8333C78 41.0543 77.9122 41.2663 77.7559 41.4226C77.5996 41.5789 77.3877 41.6667 77.1667 41.6667H74.6667C74.4457 41.6667 74.2337 41.5789 74.0774 41.4226C73.9211 41.2663 73.8333 41.0543 73.8333 40.8333C73.8333 40.6123 73.9211 40.4004 74.0774 40.2441C74.2337 40.0878 74.4457 40 74.6667 40H77.1667ZM82.1667 37.5C82.1667 37.279 82.0789 37.067 81.9226 36.9107C81.7663 36.7545 81.5543 36.6667 81.3333 36.6667H74.6667C74.4457 36.6667 74.2337 36.7545 74.0774 36.9107C73.9211 37.067 73.8333 37.279 73.8333 37.5C73.8333 37.721 73.9211 37.933 74.0774 38.0893C74.2337 38.2455 74.4457 38.3333 74.6667 38.3333H81.3333C81.5543 38.3333 81.7663 38.2455 81.9226 38.0893C82.0789 37.933 82.1667 37.721 82.1667 37.5ZM74.6667 35H81.3333C81.5543 35 81.7663 34.9122 81.9226 34.7559C82.0789 34.5996 82.1667 34.3877 82.1667 34.1667C82.1667 33.9457 82.0789 33.7337 81.9226 33.5774C81.7663 33.4211 81.5543 33.3333 81.3333 33.3333H74.6667C74.4457 33.3333 74.2337 33.4211 74.0774 33.5774C73.9211 33.7337 73.8333 33.9457 73.8333 34.1667C73.8333 34.3877 73.9211 34.5996 74.0774 34.7559C74.2337 34.9122 74.4457 35 74.6667 35ZM84.6667 46.2033V49.3975C84.6667 49.5164 84.6315 49.6326 84.5655 49.7315C84.4995 49.8303 84.4056 49.9074 84.2958 49.9529C84.186 49.9984 84.0651 50.0103 83.9485 49.9871C83.8319 49.9639 83.7249 49.9066 83.6408 49.8225L83 49.1825L82.3592 49.8225C82.2751 49.9066 82.1681 49.9639 82.0515 49.9871C81.9349 50.0103 81.814 49.9984 81.7042 49.9529C81.5944 49.9074 81.5005 49.8303 81.4345 49.7315C81.3685 49.6326 81.3333 49.5164 81.3333 49.3975V46.2033C80.6978 45.8382 80.2008 45.2731 79.9199 44.5961C79.6389 43.9192 79.5896 43.1683 79.7798 42.4604C79.97 41.7525 80.3889 41.1274 80.9714 40.6824C81.5538 40.2374 82.267 39.9975 83 40C83.2817 40.0035 83.5618 40.0433 83.8333 40.1183V34.1667C83.8333 33.5036 83.5699 32.8677 83.1011 32.3989C82.6323 31.9301 81.9964 31.6667 81.3333 31.6667H74.6667C74.0036 31.6667 73.3677 31.9301 72.8989 32.3989C72.4301 32.8677 72.1667 33.5036 72.1667 34.1667V44.1667C72.1667 44.8297 72.4301 45.4656 72.8989 45.9344C73.3677 46.4033 74.0036 46.6667 74.6667 46.6667H78.8333C79.0543 46.6667 79.2663 46.7545 79.4226 46.9107C79.5789 47.067 79.6667 47.279 79.6667 47.5C79.6667 47.721 79.5789 47.933 79.4226 48.0893C79.2663 48.2455 79.0543 48.3333 78.8333 48.3333H74.6667C73.562 48.332 72.503 47.8926 71.7218 47.1115C70.9407 46.3304 70.5013 45.2713 70.5 44.1667V34.1667C70.5013 33.062 70.9407 32.003 71.7218 31.2218C72.503 30.4407 73.562 30.0013 74.6667 30H81.3333C82.438 30.0013 83.497 30.4407 84.2782 31.2218C85.0593 32.003 85.4987 33.062 85.5 34.1667V41.1517C85.8264 41.5182 86.0667 41.9532 86.2033 42.4247C86.34 42.8961 86.3694 43.3922 86.2895 43.8765C86.2096 44.3608 86.0224 44.8211 85.7416 45.2237C85.4608 45.6263 85.0935 45.961 84.6667 46.2033ZM84.6667 43.3333C84.6667 43.0037 84.5689 42.6815 84.3858 42.4074C84.2026 42.1333 83.9424 41.9197 83.6378 41.7935C83.3333 41.6674 82.9982 41.6344 82.6749 41.6987C82.3515 41.763 82.0546 41.9217 81.8215 42.1548C81.5884 42.3879 81.4297 42.6849 81.3654 43.0082C81.301 43.3315 81.3341 43.6666 81.4602 43.9711C81.5863 44.2757 81.8 44.536 82.074 44.7191C82.3481 44.9023 82.6704 45 83 45C83.442 45 83.866 44.8244 84.1785 44.5118C84.4911 44.1993 84.6667 43.7754 84.6667 43.3333Z" fill="white"/>
</g>
<path d="M38.4831 80.182C37.0085 80.182 35.7858 79.6967 34.8151 78.726C33.8445 77.746 33.3591 76.5373 33.3591 75.1C33.3591 73.6627 33.8445 72.4587 34.8151 71.488C35.7858 70.508 37.0085 70.018 38.4831 70.018C39.3698 70.018 40.1865 70.228 40.9331 70.648C41.6891 71.068 42.2771 71.6373 42.6971 72.356L41.2971 73.168C41.0358 72.6827 40.6531 72.3 40.1491 72.02C39.6545 71.7307 39.0991 71.586 38.4831 71.586C37.4378 71.586 36.5885 71.9173 35.9351 72.58C35.2911 73.2427 34.9691 74.0827 34.9691 75.1C34.9691 76.1173 35.2911 76.9573 35.9351 77.62C36.5885 78.2827 37.4378 78.614 38.4831 78.614C39.0991 78.614 39.6591 78.474 40.1631 78.194C40.6671 77.9047 41.0451 77.5173 41.2971 77.032L42.6971 77.83C42.2865 78.5487 41.7031 79.1227 40.9471 79.552C40.2005 79.972 39.3791 80.182 38.4831 80.182ZM45.113 77.144C45.225 77.676 45.4817 78.0867 45.883 78.376C46.2843 78.656 46.7743 78.796 47.353 78.796C48.1557 78.796 48.7577 78.5067 49.159 77.928L50.405 78.656C49.7143 79.6733 48.6923 80.182 47.339 80.182C46.2003 80.182 45.281 79.8367 44.581 79.146C43.881 78.446 43.531 77.564 43.531 76.5C43.531 75.4547 43.8763 74.582 44.567 73.882C45.2577 73.1727 46.1443 72.818 47.227 72.818C48.2537 72.818 49.0937 73.1773 49.747 73.896C50.4097 74.6147 50.741 75.4873 50.741 76.514C50.741 76.6727 50.7223 76.8827 50.685 77.144H45.113ZM45.099 75.912H49.215C49.1123 75.3427 48.8743 74.9133 48.501 74.624C48.137 74.3347 47.7077 74.19 47.213 74.19C46.653 74.19 46.1863 74.344 45.813 74.652C45.4397 74.96 45.2017 75.38 45.099 75.912ZM56.0335 72.818C56.9948 72.818 57.8161 73.1773 58.4975 73.896C59.1788 74.6053 59.5195 75.4733 59.5195 76.5C59.5195 77.536 59.1788 78.4087 58.4975 79.118C57.8161 79.8273 56.9948 80.182 56.0335 80.182C54.9695 80.182 54.1528 79.79 53.5835 79.006V82.8H52.0715V73H53.5835V74.008C54.1528 73.2147 54.9695 72.818 56.0335 72.818ZM54.2135 78.11C54.6335 78.53 55.1608 78.74 55.7955 78.74C56.4301 78.74 56.9575 78.53 57.3775 78.11C57.7975 77.6807 58.0075 77.144 58.0075 76.5C58.0075 75.856 57.7975 75.324 57.3775 74.904C56.9575 74.4747 56.4301 74.26 55.7955 74.26C55.1608 74.26 54.6335 74.4747 54.2135 74.904C53.7935 75.324 53.5835 75.856 53.5835 76.5C53.5835 77.144 53.7935 77.6807 54.2135 78.11ZM65.9644 73V74.456H63.6824V80H62.1704V74.456H59.8744V73H65.9644ZM72.0555 73H73.2175V80H71.7335V75.548L68.1495 80H66.9875V73H68.4715V77.438L72.0555 73ZM82.1678 74.078C82.8025 74.7407 83.1198 75.548 83.1198 76.5C83.1198 77.452 82.8025 78.2593 82.1678 78.922C81.5332 79.5847 80.6745 79.986 79.5918 80.126V82.8H78.1078V80.126C77.0252 79.986 76.1665 79.5847 75.5318 78.922C74.8972 78.2593 74.5798 77.452 74.5798 76.5C74.5798 75.548 74.8972 74.7407 75.5318 74.078C76.1665 73.4153 77.0252 73.014 78.1078 72.874V70.2H79.5918V72.874C80.6745 73.014 81.5332 73.4153 82.1678 74.078ZM79.5918 78.684C80.2358 78.5627 80.7352 78.3107 81.0898 77.928C81.4445 77.536 81.6218 77.06 81.6218 76.5C81.6218 75.94 81.4445 75.4687 81.0898 75.086C80.7352 74.694 80.2358 74.4373 79.5918 74.316V78.684ZM76.6098 75.086C76.2552 75.478 76.0778 75.9493 76.0778 76.5C76.0778 77.0507 76.2552 77.522 76.6098 77.914C76.9645 78.306 77.4638 78.5627 78.1078 78.684V74.316C77.4638 74.4373 76.9645 74.694 76.6098 75.086ZM89.5555 73H90.7175V80H89.2335V75.548L85.6495 80H84.4875V73H85.9715V77.438L89.5555 73ZM98.6598 80H96.8538L93.9838 76.766V80H92.4718V73H93.9838V76.094L96.6998 73H98.5478L95.4678 76.43L98.6598 80ZM104.66 73H106.172V80H104.66V78.992C104.091 79.7853 103.274 80.182 102.21 80.182C101.249 80.182 100.428 79.8273 99.7464 79.118C99.065 78.3993 98.7244 77.5267 98.7244 76.5C98.7244 75.464 99.065 74.5913 99.7464 73.882C100.428 73.1727 101.249 72.818 102.21 72.818C103.274 72.818 104.091 73.21 104.66 73.994V73ZM100.866 78.11C101.286 78.53 101.814 78.74 102.448 78.74C103.083 78.74 103.61 78.53 104.03 78.11C104.45 77.6807 104.66 77.144 104.66 76.5C104.66 75.856 104.45 75.324 104.03 74.904C103.61 74.4747 103.083 74.26 102.448 74.26C101.814 74.26 101.286 74.4747 100.866 74.904C100.446 75.324 100.236 75.856 100.236 76.5C100.236 77.144 100.446 77.6807 100.866 78.11ZM113.283 73V74.456H111.001V80H109.489V74.456H107.193V73H113.283ZM117.358 75.38C118.104 75.38 118.716 75.5947 119.192 76.024C119.668 76.444 119.906 76.9993 119.906 77.69C119.906 78.3713 119.668 78.9267 119.192 79.356C118.716 79.7853 118.104 80 117.358 80H114.306V73H115.818V75.38H117.358ZM120.746 73H122.258V80H120.746V73ZM117.372 78.642C117.67 78.642 117.918 78.5533 118.114 78.376C118.319 78.1987 118.422 77.97 118.422 77.69C118.422 77.4007 118.319 77.172 118.114 77.004C117.918 76.8267 117.67 76.738 117.372 76.738H115.818V78.642H117.372Z" fill="#1C1C1C"/>
<defs>
<clipPath id="clip0_459_1394">
<rect width="20" height="20" fill="white" transform="translate(68 30)"/>
</clipPath>
</defs>
</svg>
