<svg width="156" height="102" viewBox="0 0 156 102" fill="none" xmlns="http://www.w3.org/2000/svg">
<rect x="0.5" y="0.5" width="155" height="101" rx="9.5" stroke="#EDF0F7"/>
<rect x="58" y="20" width="40" height="40" rx="20" fill="#F03F29"/>
<g clip-path="url(#clip0_459_1393)">
<path d="M78 30C76.0222 30 74.0888 30.5865 72.4443 31.6853C70.7998 32.7841 69.5181 34.3459 68.7612 36.1732C68.0043 38.0004 67.8063 40.0111 68.1922 41.9509C68.578 43.8907 69.5304 45.6725 70.9289 47.0711C72.3275 48.4696 74.1093 49.422 76.0491 49.8079C77.9889 50.1937 79.9996 49.9957 81.8268 49.2388C83.6541 48.4819 85.2159 47.2002 86.3147 45.5557C87.4135 43.9112 88 41.9778 88 40C87.9971 37.3487 86.9426 34.8068 85.0679 32.9321C83.1932 31.0574 80.6513 30.0029 78 30V30ZM78 48.3333C76.3518 48.3333 74.7407 47.8446 73.3703 46.9289C71.9998 46.0132 70.9317 44.7117 70.301 43.189C69.6703 41.6663 69.5053 39.9908 69.8268 38.3742C70.1483 36.7577 70.942 35.2729 72.1074 34.1074C73.2729 32.942 74.7577 32.1483 76.3743 31.8268C77.9908 31.5052 79.6663 31.6703 81.189 32.301C82.7118 32.9317 84.0132 33.9998 84.9289 35.3702C85.8446 36.7407 86.3333 38.3518 86.3333 40C86.3309 42.2094 85.4522 44.3276 83.8899 45.8899C82.3276 47.4522 80.2094 48.3309 78 48.3333Z" fill="white"/>
<path d="M78.5978 34.2188C78.1173 34.1312 77.6233 34.1504 77.151 34.2748C76.6786 34.3993 76.2394 34.626 75.8644 34.939C75.4894 35.252 75.1878 35.6436 74.9808 36.0861C74.7739 36.5286 74.6668 37.0111 74.667 37.4996C74.667 37.7206 74.7548 37.9326 74.9111 38.0889C75.0673 38.2452 75.2793 38.3329 75.5003 38.3329C75.7213 38.3329 75.9333 38.2452 76.0896 38.0889C76.2459 37.9326 76.3337 37.7206 76.3337 37.4996C76.3334 37.2544 76.3873 37.0122 76.4915 36.7902C76.5956 36.5683 76.7475 36.372 76.9362 36.2155C77.1249 36.0589 77.3458 35.9459 77.5832 35.8846C77.8206 35.8232 78.0686 35.815 78.3095 35.8604C78.6387 35.9244 78.9414 36.0849 79.1789 36.3217C79.4164 36.5584 79.5779 36.8606 79.6428 37.1896C79.7084 37.535 79.6631 37.8922 79.5134 38.2102C79.3638 38.5283 79.1174 38.7909 78.8095 38.9604C78.2996 39.2558 77.8783 39.6825 77.5894 40.1961C77.3005 40.7097 77.1547 41.2913 77.167 41.8804V42.4996C77.167 42.7206 77.2548 42.9326 77.4111 43.0889C77.5673 43.2452 77.7793 43.3329 78.0003 43.3329C78.2213 43.3329 78.4333 43.2452 78.5896 43.0889C78.7459 42.9326 78.8337 42.7206 78.8337 42.4996V41.8804C78.8232 41.5905 78.8893 41.3028 79.0254 41.0465C79.1614 40.7902 79.3626 40.5743 79.6087 40.4204C80.2124 40.0888 80.6986 39.5783 81.0004 38.9591C81.3022 38.3399 81.4047 37.6424 81.2939 36.9626C81.1831 36.2827 80.8644 35.6539 80.3816 35.1625C79.8988 34.6712 79.2756 34.3415 78.5978 34.2188Z" fill="white"/>
<path d="M78.8337 44.9998C78.8337 44.5396 78.4606 44.1665 78.0003 44.1665C77.5401 44.1665 77.167 44.5396 77.167 44.9998C77.167 45.4601 77.5401 45.8332 78.0003 45.8332C78.4606 45.8332 78.8337 45.4601 78.8337 44.9998Z" fill="white"/>
</g>
<path d="M71.8011 71.74H67.6711V74.484H71.6611V76.024H67.6711V80H66.0611V70.2H71.8011V71.74ZM79.2673 80L78.5813 78.026H74.4093L73.7233 80H71.9733L75.5293 70.2H77.4613L81.0033 80H79.2673ZM74.9413 76.514H78.0493L76.4953 72.09L74.9413 76.514ZM91.362 75.1C91.362 76.4067 90.9327 77.536 90.074 78.488L91.11 79.552L89.976 80.574L88.898 79.468C88.0767 79.944 87.204 80.182 86.28 80.182C84.8707 80.182 83.6713 79.692 82.682 78.712C81.6927 77.7227 81.198 76.5187 81.198 75.1C81.198 73.6813 81.6927 72.482 82.682 71.502C83.6713 70.5127 84.8707 70.018 86.28 70.018C87.6893 70.018 88.8887 70.5127 89.878 71.502C90.8673 72.482 91.362 73.6813 91.362 75.1ZM86.28 78.614C86.8027 78.614 87.2927 78.5067 87.75 78.292L85.958 76.458L87.092 75.436L88.968 77.354C89.4907 76.71 89.752 75.9587 89.752 75.1C89.752 74.1013 89.416 73.266 88.744 72.594C88.072 71.922 87.2507 71.586 86.28 71.586C85.3093 71.586 84.488 71.922 83.816 72.594C83.144 73.266 82.808 74.1013 82.808 75.1C82.808 76.0987 83.144 76.934 83.816 77.606C84.488 78.278 85.3093 78.614 86.28 78.614Z" fill="#1C1C1C"/>
<defs>
<clipPath id="clip0_459_1393">
<rect width="20" height="20" fill="white" transform="translate(68 30)"/>
</clipPath>
</defs>
</svg>
