<svg width="79" height="40" viewBox="0 0 79 40" fill="none" xmlns="http://www.w3.org/2000/svg">
<rect width="79" height="40" rx="20" fill="#F03F29"/>
<path d="M41.0733 18.7C42.0346 18.7 42.8233 19.0033 43.4393 19.61C44.0553 20.2073 44.3633 20.982 44.3633 21.934C44.3633 22.886 44.0553 23.6653 43.4393 24.272C42.8233 24.8693 42.0346 25.168 41.0733 25.168C40.1119 25.168 39.3233 24.8693 38.7073 24.272C38.0913 23.6653 37.7833 22.886 37.7833 21.934C37.7833 21.1967 37.9839 20.5433 38.3853 19.974L41.5913 15.2H42.6973L40.2893 18.784C40.5413 18.728 40.8026 18.7 41.0733 18.7ZM39.3933 23.586C39.8226 24.006 40.3826 24.216 41.0733 24.216C41.7639 24.216 42.3193 24.006 42.7393 23.586C43.1686 23.166 43.3833 22.6153 43.3833 21.934C43.3833 21.2527 43.1686 20.702 42.7393 20.282C42.3193 19.862 41.7639 19.652 41.0733 19.652C40.3826 19.652 39.8226 19.862 39.3933 20.282C38.9733 20.702 38.7633 21.2527 38.7633 21.934C38.7633 22.6153 38.9733 23.166 39.3933 23.586ZM45.9071 21.122V20.226H50.9471V21.122H45.9071ZM54.8605 15.2H55.7005V25H54.7205V16.278L52.5225 16.936L52.2705 16.096L54.8605 15.2ZM63.9584 23.796C63.3144 24.7107 62.4044 25.168 61.2284 25.168C60.0524 25.168 59.1377 24.7107 58.4844 23.796C57.8404 22.872 57.5184 21.64 57.5184 20.1C57.5184 18.56 57.8404 17.3327 58.4844 16.418C59.1377 15.494 60.0524 15.032 61.2284 15.032C62.4044 15.032 63.3144 15.494 63.9584 16.418C64.6117 17.3327 64.9384 18.56 64.9384 20.1C64.9384 21.64 64.6117 22.872 63.9584 23.796ZM59.2124 23.138C59.6977 23.8567 60.3697 24.216 61.2284 24.216C62.087 24.216 62.7544 23.8567 63.2304 23.138C63.7157 22.4193 63.9584 21.4067 63.9584 20.1C63.9584 18.7933 63.7157 17.7807 63.2304 17.062C62.7544 16.3433 62.087 15.984 61.2284 15.984C60.3697 15.984 59.6977 16.3433 59.2124 17.062C58.7364 17.7807 58.4984 18.7933 58.4984 20.1C58.4984 21.4067 58.7364 22.4193 59.2124 23.138Z" fill="white"/>
<path d="M15.6249 17.0001C15.6251 16.2891 15.809 15.5901 16.159 14.9711C16.5089 14.3521 17.0129 13.834 17.622 13.4672C18.2311 13.1004 18.9248 12.8973 19.6356 12.8776C20.3464 12.8578 21.0502 13.0222 21.6787 13.3547C22.3073 13.6872 22.8392 14.1765 23.2229 14.7751C23.6066 15.3738 23.829 16.0615 23.8686 16.7714C23.9081 17.4814 23.7635 18.1895 23.4487 18.8271C23.1339 19.4647 22.6597 20.0101 22.0719 20.4104C23.3376 20.8746 24.4353 21.7069 25.2239 22.8002C26.0125 23.8936 26.4559 25.1979 26.4969 26.5454C26.4952 26.6906 26.4374 26.8296 26.3356 26.9333C26.2338 27.0369 26.0958 27.0972 25.9506 27.1016C25.8054 27.106 25.6641 27.054 25.5563 26.9567C25.4484 26.8593 25.3824 26.724 25.3719 26.5791C25.3273 25.1177 24.7154 23.7311 23.6658 22.7132C22.6163 21.6952 21.2117 21.1259 19.7496 21.1259C18.2875 21.1259 16.8828 21.6952 15.8333 22.7132C14.7838 23.7311 14.1719 25.1177 14.1272 26.5791C14.1197 26.726 14.055 26.8641 13.9469 26.9638C13.8388 27.0635 13.6959 27.117 13.5489 27.1127C13.4019 27.1083 13.2625 27.0466 13.1604 26.9407C13.0583 26.8348 13.0018 26.6932 13.0029 26.5461C13.0439 25.1985 13.4872 23.894 14.2758 22.8006C15.0644 21.7071 16.1622 20.8746 17.4279 20.4104C16.8721 20.0321 16.4172 19.5236 16.1029 18.9292C15.7886 18.3348 15.6245 17.6725 15.6249 17.0001ZM19.7499 14.0001C18.9543 14.0001 18.1912 14.3162 17.6286 14.8788C17.066 15.4414 16.7499 16.2045 16.7499 17.0001C16.7499 17.7958 17.066 18.5588 17.6286 19.1214C18.1912 19.684 18.9543 20.0001 19.7499 20.0001C20.5456 20.0001 21.3087 19.684 21.8713 19.1214C22.4339 18.5588 22.7499 17.7958 22.7499 17.0001C22.7499 16.2045 22.4339 15.4414 21.8713 14.8788C21.3087 14.3162 20.5456 14.0001 19.7499 14.0001ZM25.9674 17.0001C25.8564 17.0001 25.7484 17.0076 25.6419 17.0226C25.5676 17.0359 25.4913 17.0341 25.4177 17.0173C25.344 17.0005 25.2745 16.9691 25.2133 16.9248C25.1521 16.8806 25.1004 16.8244 25.0613 16.7598C25.0223 16.6951 24.9966 16.6233 24.986 16.5485C24.9753 16.4737 24.9798 16.3975 24.9992 16.3245C25.0185 16.2515 25.0524 16.1832 25.0988 16.1235C25.1452 16.0639 25.2031 16.0142 25.2691 15.9775C25.3351 15.9407 25.4078 15.9177 25.4829 15.9096C26.2289 15.8018 26.9895 15.945 27.6451 16.3168C28.3007 16.6886 28.8141 17.2678 29.1044 17.9634C29.3947 18.6589 29.4456 19.4312 29.2489 20.1588C29.0522 20.8863 28.6192 21.5279 28.0179 21.9824C28.9017 22.3781 29.6521 23.0211 30.1786 23.8338C30.7051 24.6466 30.9851 25.5943 30.9849 26.5626C30.9849 26.7118 30.9257 26.8549 30.8202 26.9604C30.7147 27.0659 30.5716 27.1251 30.4224 27.1251C30.2733 27.1251 30.1302 27.0659 30.0247 26.9604C29.9192 26.8549 29.8599 26.7118 29.8599 26.5626C29.8599 25.7257 29.5902 24.9111 29.0909 24.2395C28.5916 23.5678 27.8893 23.0749 27.0879 22.8336L26.6874 22.7136V21.4566L26.9949 21.2999C27.4508 21.069 27.8155 20.6912 28.0302 20.2275C28.2449 19.7639 28.2971 19.2414 28.1783 18.7444C28.0596 18.2475 27.7768 17.805 27.3756 17.4885C26.9745 17.172 26.4784 17 25.9674 17.0001Z" fill="white"/>
</svg>
