<svg width="20" height="20" viewBox="0 0 20 20" fill="none" xmlns="http://www.w3.org/2000/svg">
<path d="M7.354 8.146C7.40056 8.19245 7.43751 8.24762 7.46271 8.30837C7.48792 8.36911 7.50089 8.43423 7.50089 8.5C7.50089 8.56577 7.48792 8.63089 7.46271 8.69163C7.43751 8.75238 7.40056 8.80755 7.354 8.854L6.707 9.5H13.293L12.646 8.854C12.5521 8.76011 12.4994 8.63278 12.4994 8.5C12.4994 8.36722 12.5521 8.23989 12.646 8.146C12.7399 8.05211 12.8672 7.99937 13 7.99937C13.1328 7.99937 13.2601 8.05211 13.354 8.146L14.854 9.646C14.9006 9.69245 14.9375 9.74762 14.9627 9.80837C14.9879 9.86911 15.0009 9.93423 15.0009 10C15.0009 10.0658 14.9879 10.1309 14.9627 10.1916C14.9375 10.2524 14.9006 10.3076 14.854 10.354L13.354 11.854C13.2601 11.9479 13.1328 12.0006 13 12.0006C12.8672 12.0006 12.7399 11.9479 12.646 11.854C12.5521 11.7601 12.4994 11.6328 12.4994 11.5C12.4994 11.3672 12.5521 11.2399 12.646 11.146L13.293 10.5H6.707L7.354 11.146C7.44789 11.2399 7.50063 11.3672 7.50063 11.5C7.50063 11.6328 7.44789 11.7601 7.354 11.854C7.26011 11.9479 7.13278 12.0006 7 12.0006C6.86722 12.0006 6.73989 11.9479 6.646 11.854L5.146 10.354C5.09944 10.3076 5.06249 10.2524 5.03729 10.1916C5.01208 10.1309 4.99911 10.0658 4.99911 10C4.99911 9.93423 5.01208 9.86911 5.03729 9.80837C5.06249 9.74762 5.09944 9.69245 5.146 9.646L6.646 8.146C6.69245 8.09944 6.74762 8.06249 6.80837 8.03729C6.86911 8.01208 6.93423 7.99911 7 7.99911C7.06577 7.99911 7.13089 8.01208 7.19163 8.03729C7.25238 8.06249 7.30755 8.09944 7.354 8.146ZM17 6C17 5.20435 16.6839 4.44129 16.1213 3.87868C15.5587 3.31607 14.7956 3 14 3H6C5.20435 3 4.44129 3.31607 3.87868 3.87868C3.31607 4.44129 3 5.20435 3 6V14C3 14.7956 3.31607 15.5587 3.87868 16.1213C4.44129 16.6839 5.20435 17 6 17H14C14.7956 17 15.5587 16.6839 16.1213 16.1213C16.6839 15.5587 17 14.7956 17 14V6ZM13 4V7C13.358 7 13.716 7.127 14 7.382V4C14.5304 4 15.0391 4.21071 15.4142 4.58579C15.7893 4.96086 16 5.46957 16 6V14C16 14.5304 15.7893 15.0391 15.4142 15.4142C15.0391 15.7893 14.5304 16 14 16V12.618C13.7252 12.8644 13.3691 13.0005 13 13V16H7V13C6.642 13 6.284 12.873 6 12.618V16C5.46957 16 4.96086 15.7893 4.58579 15.4142C4.21071 15.0391 4 14.5304 4 14V6C4 5.46957 4.21071 4.96086 4.58579 4.58579C4.96086 4.21071 5.46957 4 6 4V7.382C6.27476 7.1356 6.63094 6.99954 7 7V4H13Z" fill="#F03F29"/>
</svg>
