<svg width="20" height="20" viewBox="0 0 20 20" fill="none" xmlns="http://www.w3.org/2000/svg">
<path d="M12.5587 9.37508L11.8087 10.1417C11.2087 10.7417 10.8337 11.2501 10.8337 12.5001H9.16699V12.0834C9.16699 11.1584 9.54199 10.3251 10.142 9.72508L11.1753 8.67508C11.4837 8.37508 11.667 7.95841 11.667 7.50008C11.667 7.05805 11.4914 6.63413 11.1788 6.32157C10.8663 6.00901 10.4424 5.83341 10.0003 5.83341C9.5583 5.83341 9.13437 6.00901 8.82181 6.32157C8.50925 6.63413 8.33366 7.05805 8.33366 7.50008H6.66699C6.66699 6.61603 7.01818 5.76818 7.6433 5.14306C8.26842 4.51794 9.11627 4.16675 10.0003 4.16675C10.8844 4.16675 11.7322 4.51794 12.3573 5.14306C12.9825 5.76818 13.3337 6.61603 13.3337 7.50008C13.3325 8.20278 13.0539 8.8766 12.5587 9.37508ZM10.8337 15.8334H9.16699V14.1667H10.8337M10.0003 1.66675C8.90598 1.66675 7.82234 1.8823 6.8113 2.30109C5.80025 2.71987 4.88159 3.3337 4.10777 4.10752C2.54497 5.67033 1.66699 7.78994 1.66699 10.0001C1.66699 12.2102 2.54497 14.3298 4.10777 15.8926C4.88159 16.6665 5.80025 17.2803 6.8113 17.6991C7.82234 18.1179 8.90598 18.3334 10.0003 18.3334C12.2105 18.3334 14.3301 17.4554 15.8929 15.8926C17.4557 14.3298 18.3337 12.2102 18.3337 10.0001C18.3337 5.39175 14.5837 1.66675 10.0003 1.66675Z" fill="#F03F29"/>
</svg>
