<svg width="18" height="18" viewBox="0 0 18 18" fill="none" xmlns="http://www.w3.org/2000/svg">
<path d="M17.8446 16.2186C16.5358 13.9559 14.5189 12.3334 12.165 11.5643C13.3293 10.8711 14.2339 9.815 14.7399 8.558C15.2459 7.30101 15.3252 5.91268 14.9658 4.60622C14.6064 3.29976 13.828 2.14741 12.7502 1.32613C11.6725 0.504851 10.355 0.0600586 8.99996 0.0600586C7.64495 0.0600586 6.32741 0.504851 5.24967 1.32613C4.17192 2.14741 3.39356 3.29976 3.03413 4.60622C2.67469 5.91268 2.75404 7.30101 3.26001 8.558C3.76597 9.815 4.67057 10.8711 5.83488 11.5643C3.48105 12.3326 1.4641 13.9551 0.155271 16.2186C0.107273 16.2969 0.0754374 16.384 0.0616406 16.4748C0.0478438 16.5655 0.0523658 16.6581 0.0749398 16.7471C0.0975138 16.8361 0.137683 16.9197 0.193076 16.9929C0.248469 17.0661 0.317965 17.1275 0.397464 17.1734C0.476962 17.2193 0.564852 17.2488 0.655949 17.2602C0.747046 17.2717 0.839503 17.2647 0.927867 17.2398C1.01623 17.2149 1.09871 17.1725 1.17044 17.1152C1.24217 17.0579 1.30169 16.9868 1.3455 16.9061C2.96457 14.108 5.82629 12.4374 8.99996 12.4374C12.1736 12.4374 15.0353 14.108 16.6544 16.9061C16.6982 16.9868 16.7577 17.0579 16.8295 17.1152C16.9012 17.1725 16.9837 17.2149 17.072 17.2398C17.1604 17.2647 17.2529 17.2717 17.344 17.2602C17.4351 17.2488 17.523 17.2193 17.6025 17.1734C17.6819 17.1275 17.7514 17.0661 17.8068 16.9929C17.8622 16.9197 17.9024 16.8361 17.925 16.7471C17.9475 16.6581 17.9521 16.5655 17.9383 16.4748C17.9245 16.384 17.8926 16.2969 17.8446 16.2186ZM4.18746 6.2499C4.18746 5.29807 4.46971 4.36763 4.99851 3.57622C5.52731 2.7848 6.27892 2.16797 7.15829 1.80373C8.03766 1.43948 9.0053 1.34418 9.93883 1.52987C10.8724 1.71556 11.7299 2.1739 12.4029 2.84694C13.0759 3.51999 13.5343 4.37749 13.72 5.31102C13.9057 6.24456 13.8104 7.21219 13.4461 8.09156C13.0819 8.97093 12.4651 9.72254 11.6736 10.2513C10.8822 10.7801 9.95178 11.0624 8.99996 11.0624C7.72402 11.061 6.50074 10.5536 5.59851 9.65134C4.69629 8.74912 4.18882 7.52583 4.18746 6.2499Z" fill="white"/>
</svg>
