<svg width="18" height="16" viewBox="0 0 18 16" fill="none" xmlns="http://www.w3.org/2000/svg">
<path d="M15.7309 2.2696C15.3299 1.86718 14.8534 1.54788 14.3287 1.33002C13.804 1.11215 13.2415 1 12.6733 1C12.1052 1 11.5427 1.11215 11.018 1.33002C10.4933 1.54788 10.0168 1.86718 9.61576 2.2696L9.00024 2.89311L8.38473 2.2696C7.9837 1.86718 7.50718 1.54788 6.98249 1.33002C6.4578 1.11215 5.89527 1 5.32715 1C4.75902 1 4.19649 1.11215 3.6718 1.33002C3.14711 1.54788 2.67059 1.86718 2.26956 2.2696C0.574899 3.96426 0.470981 6.826 2.6053 9.00029L9.00024 15.3952L15.3952 9.00029C17.5295 6.826 17.4256 3.96426 15.7309 2.2696Z" stroke="white" stroke-linecap="round" stroke-linejoin="round"/>
<path d="M9.00044 2.89307L6.49841 5.40308C6.1821 5.72199 6.0046 6.15296 6.0046 6.60214C6.0046 7.05131 6.1821 7.48229 6.49841 7.80119C6.81732 8.11751 7.24829 8.295 7.69747 8.295C8.14664 8.295 8.57762 8.11751 8.89652 7.80119L10.7031 6.03458C11.1521 5.59036 11.7582 5.3412 12.3898 5.3412C13.0214 5.3412 13.6275 5.59036 14.0764 6.03458L15.9949 7.95307M13.7966 10.599L12.1979 9.00024M11.3985 12.9971L9.79981 11.3983" stroke="white" stroke-linecap="round" stroke-linejoin="round"/>
</svg>
