<svg width="14" height="16" viewBox="0 0 14 16" fill="none" xmlns="http://www.w3.org/2000/svg">
<path d="M7 3.64062C6.47155 3.64062 5.95497 3.79733 5.51559 4.09092C5.0762 4.38451 4.73374 4.8018 4.53151 5.29002C4.32928 5.77824 4.27637 6.31546 4.37946 6.83376C4.48256 7.35205 4.73703 7.82813 5.1107 8.2018C5.48437 8.57547 5.96045 8.82994 6.47874 8.93304C6.99704 9.03613 7.53426 8.98322 8.02248 8.78099C8.5107 8.57876 8.92799 8.2363 9.22158 7.79691C9.51517 7.35753 9.67188 6.84095 9.67188 6.3125C9.67188 5.60387 9.39037 4.92427 8.8893 4.4232C8.38823 3.92213 7.70863 3.64062 7 3.64062ZM7 8.14062C6.63843 8.14062 6.28498 8.03341 5.98435 7.83253C5.68371 7.63165 5.4494 7.34614 5.31103 7.01209C5.17267 6.67805 5.13646 6.31047 5.207 5.95585C5.27754 5.60123 5.45165 5.27549 5.70732 5.01982C5.96299 4.76415 6.28873 4.59004 6.64335 4.5195C6.99797 4.44896 7.36555 4.48517 7.69959 4.62353C8.03364 4.7619 8.31915 4.99621 8.52003 5.29685C8.72091 5.59748 8.82812 5.95093 8.82812 6.3125C8.82812 6.79735 8.63552 7.26234 8.29268 7.60518C7.94984 7.94802 7.48485 8.14062 7 8.14062ZM7 0.265625C5.39684 0.267486 3.85987 0.905163 2.72627 2.03877C1.59266 3.17237 0.954986 4.70934 0.953125 6.3125C0.953125 8.48586 1.96141 10.7942 3.86898 12.988C4.72997 13.983 5.69898 14.8791 6.75812 15.6598C6.82902 15.7095 6.91347 15.7361 7 15.7361C7.08653 15.7361 7.17098 15.7095 7.24188 15.6598C8.30102 14.8791 9.27003 13.983 10.131 12.988C12.0386 10.7942 13.0469 8.48797 13.0469 6.3125C13.045 4.70934 12.4073 3.17237 11.2737 2.03877C10.1401 0.905163 8.60316 0.267486 7 0.265625ZM7 14.7859C5.94531 13.9716 1.79688 10.5045 1.79688 6.3125C1.79688 4.93255 2.34506 3.60911 3.32083 2.63334C4.29661 1.65756 5.62005 1.10938 7 1.10938C8.37995 1.10938 9.70339 1.65756 10.6792 2.63334C11.6549 3.60911 12.2031 4.93255 12.2031 6.3125C12.2031 10.5045 8.05469 13.9716 7 14.7859Z" fill="white"/>
</svg>
